<svg width="256" height="232" viewBox="0 0 256 232" fill="none" xmlns="http://www.w3.org/2000/svg">
<path d="M164.073 23.2C162.513 30.8552 162.513 38.7449 164.073 46.4H29.2189L117.073 123.679L175.825 71.2472C180.783 77.3604 186.973 82.4528 194.013 86.1532L117.201 154.721L23.2727 72.1056V208.8H209.455V91.64C217.134 93.1951 225.048 93.1951 232.727 91.64V220.4C232.727 223.477 231.501 226.427 229.319 228.602C227.137 230.778 224.177 232 221.091 232H11.6364C8.55021 232 5.59045 230.778 3.40821 228.602C1.22597 226.427 0 223.477 0 220.4V34.8C0 31.7235 1.22597 28.773 3.40821 26.5976C5.59045 24.4221 8.55021 23.2 11.6364 23.2H164.073ZM221.091 69.6C216.507 69.6 211.967 68.6999 207.732 66.951C203.496 65.2021 199.648 62.6388 196.406 59.4073C193.165 56.1758 190.593 52.3395 188.839 48.1174C187.085 43.8953 186.182 39.37 186.182 34.8C186.182 30.23 187.085 25.7047 188.839 21.4826C190.593 17.2605 193.165 13.4242 196.406 10.1927C199.648 6.96121 203.496 4.39786 207.732 2.64899C211.967 0.900128 216.507 -6.80983e-08 221.091 0C230.349 1.37531e-07 239.229 3.66642 245.775 10.1927C252.322 16.719 256 25.5705 256 34.8C256 44.0295 252.322 52.8811 245.775 59.4073C239.229 65.9336 230.349 69.6 221.091 69.6Z" fill="#E95584"/>
</svg>
