<svg width="256" height="256" viewBox="0 0 256 256" fill="none" xmlns="http://www.w3.org/2000/svg">
<path d="M156.444 227.556H227.556V28.4444H28.4444V227.556H128V156.444H99.5556V128H128V104.476C128 85.4613 129.991 78.5636 133.689 71.6089C137.331 64.728 142.961 59.1031 149.845 55.4667C155.278 52.5511 162.034 50.8018 173.838 50.048C178.517 49.7493 184.576 50.1191 192.014 51.1858V78.208H184.889C171.847 78.208 166.457 78.8196 163.243 80.5404C161.325 81.5269 159.763 83.0883 158.777 85.0062C157.07 88.2204 156.444 91.4062 156.444 104.462V128H192L184.889 156.444H156.444V227.556ZM14.2222 0H241.778C245.55 0 249.167 1.49841 251.834 4.16559C254.502 6.83278 256 10.4503 256 14.2222V241.778C256 245.55 254.502 249.167 251.834 251.834C249.167 254.502 245.55 256 241.778 256H14.2222C10.4503 256 6.83278 254.502 4.16559 251.834C1.49841 249.167 0 245.55 0 241.778V14.2222C0 10.4503 1.49841 6.83278 4.16559 4.16559C6.83278 1.49841 10.4503 0 14.2222 0V0Z" fill="#3B68F7"/>
</svg>
