<svg width="2048" height="2048" viewBox="0 0 2048 2048" fill="none" xmlns="http://www.w3.org/2000/svg">
<g clip-path="url(#clip0)">
<path d="M25.6 36L230.4 36C238.957 36 246 43.0428 246 51.6L246 205.2C246 213.757 238.957 220.8 230.4 220.8L25.6 220.8C17.0428 220.8 10 213.757 10 205.2L10 51.6C10 43.0428 17.0428 36 25.6 36Z" stroke="black" stroke-width="20" stroke-linecap="round" stroke-linejoin="round"/>
<path d="M246 55L128 144L10 55" stroke="black" stroke-width="20" stroke-linecap="round" stroke-linejoin="round"/>
<path d="M281.6 36L486.4 36C494.957 36 502 43.0428 502 51.6L502 205.2C502 213.757 494.957 220.8 486.4 220.8L281.6 220.8C273.043 220.8 266 213.757 266 205.2L266 51.6C266 43.0428 273.043 36 281.6 36Z" stroke="white" stroke-width="20" stroke-linecap="round" stroke-linejoin="round"/>
<path d="M502 55L384 144L266 55" stroke="white" stroke-width="20" stroke-linecap="round" stroke-linejoin="round"/>
<path d="M676.073 35.2C674.513 42.8552 674.513 50.7449 676.073 58.4H541.219L629.073 135.679L687.825 83.2472C692.783 89.3604 698.973 94.4528 706.013 98.1532L629.201 166.721L535.273 84.1056V220.8H721.455V103.64C729.134 105.195 737.048 105.195 744.727 103.64V232.4C744.727 235.477 743.501 238.427 741.319 240.602C739.137 242.778 736.177 244 733.091 244H523.636C520.55 244 517.59 242.778 515.408 240.602C513.226 238.427 512 235.477 512 232.4V46.8C512 43.7235 513.226 40.773 515.408 38.5976C517.59 36.4221 520.55 35.2 523.636 35.2H676.073ZM733.091 81.6C728.507 81.6 723.967 80.6999 719.732 78.951C715.496 77.2021 711.648 74.6388 708.406 71.4073C705.165 68.1758 702.593 64.3395 700.839 60.1174C699.085 55.8953 698.182 51.37 698.182 46.8C698.182 42.23 699.085 37.7047 700.839 33.4826C702.593 29.2605 705.165 25.4242 708.406 22.1927C711.648 18.9612 715.496 16.3979 719.732 14.649C723.967 12.9001 728.507 12 733.091 12C742.349 12 751.229 15.6664 757.775 22.1927C764.322 28.719 768 37.5705 768 46.8C768 56.0295 764.322 64.8811 757.775 71.4073C751.229 77.9336 742.349 81.6 733.091 81.6Z" fill="#E95584"/>
<path d="M896 89.6C885.816 89.6 876.048 93.6457 868.847 100.847C861.646 108.048 857.6 117.816 857.6 128C857.6 138.184 861.646 147.952 868.847 155.153C876.048 162.354 885.816 166.4 896 166.4C906.184 166.4 915.952 162.354 923.153 155.153C930.354 147.952 934.4 138.184 934.4 128C934.4 117.816 930.354 108.048 923.153 100.847C915.952 93.6457 906.184 89.6 896 89.6ZM896 64C912.974 64 929.253 70.7428 941.255 82.7452C953.257 94.7475 960 111.026 960 128C960 144.974 953.257 161.253 941.255 173.255C929.253 185.257 912.974 192 896 192C879.026 192 862.747 185.257 850.745 173.255C838.743 161.253 832 144.974 832 128C832 111.026 838.743 94.7475 850.745 82.7452C862.747 70.7428 879.026 64 896 64ZM979.2 60.8C979.2 65.0435 977.514 69.1131 974.514 72.1137C971.513 75.1143 967.443 76.8 963.2 76.8C958.957 76.8 954.887 75.1143 951.886 72.1137C948.886 69.1131 947.2 65.0435 947.2 60.8C947.2 56.5565 948.886 52.4869 951.886 49.4863C954.887 46.4857 958.957 44.8 963.2 44.8C967.443 44.8 971.513 46.4857 974.514 49.4863C977.514 52.4869 979.2 56.5565 979.2 60.8ZM896 25.6C864.333 25.6 859.162 25.6896 844.429 26.3424C834.394 26.816 827.661 28.16 821.414 30.592C815.859 32.7424 811.853 35.3152 807.59 39.5904C803.584 43.4611 800.504 48.1867 798.579 53.4144C796.147 59.6864 794.803 66.4064 794.342 76.4288C793.677 90.56 793.6 95.5008 793.6 128C793.6 159.667 793.69 164.838 794.342 179.571C794.816 189.594 796.16 196.339 798.579 202.573C800.755 208.141 803.315 212.147 807.565 216.397C811.878 220.698 815.885 223.27 821.389 225.395C827.712 227.84 834.445 229.197 844.429 229.658C858.56 230.323 863.501 230.4 896 230.4C927.667 230.4 932.838 230.31 947.571 229.658C957.581 229.184 964.326 227.84 970.573 225.421C976.115 223.258 980.147 220.685 984.397 216.435C988.71 212.122 991.283 208.115 993.408 202.611C995.84 196.301 997.197 189.555 997.658 179.571C998.323 165.44 998.4 160.499 998.4 128C998.4 96.3328 998.31 91.1616 997.658 76.4288C997.184 66.4192 995.84 59.6608 993.408 53.4144C991.479 48.192 988.404 43.4683 984.41 39.5904C980.541 35.582 975.815 32.5013 970.586 30.5792C964.314 28.1472 957.581 26.8032 947.571 26.3424C933.44 25.6768 928.499 25.6 896 25.6ZM896 0C930.778 0 935.117 0.127999 948.762 0.767999C962.394 1.408 971.674 3.5456 979.84 6.72C988.288 9.9712 995.405 14.3744 1002.52 21.4784C1009.03 27.8771 1014.07 35.6171 1017.28 44.16C1020.44 52.3136 1022.59 61.6064 1023.23 75.2384C1023.83 88.8832 1024 93.2224 1024 128C1024 162.778 1023.87 167.117 1023.23 180.762C1022.59 194.394 1020.44 203.674 1017.28 211.84C1014.08 220.388 1009.04 228.13 1002.52 234.522C996.121 241.028 988.382 246.064 979.84 249.28C971.686 252.442 962.394 254.592 948.762 255.232C935.117 255.834 930.778 256 896 256C861.222 256 856.883 255.872 843.238 255.232C829.606 254.592 820.326 252.442 812.16 249.28C803.614 246.073 795.872 241.036 789.478 234.522C782.968 228.124 777.932 220.384 774.72 211.84C771.546 203.686 769.408 194.394 768.768 180.762C768.166 167.117 768 162.778 768 128C768 93.2224 768.128 88.8832 768.768 75.2384C769.408 61.5936 771.546 52.3264 774.72 44.16C777.923 35.6119 782.961 27.8697 789.478 21.4784C795.874 14.9662 803.615 9.92934 812.16 6.72C820.326 3.5456 829.594 1.408 843.238 0.767999C856.883 0.166399 861.222 0 896 0Z" fill="#7E31FD"/>
<path d="M1180.44 227.556H1251.56V28.4444H1052.44V227.556H1152V156.444H1123.56V128H1152V104.476C1152 85.4613 1153.99 78.5636 1157.69 71.6089C1161.33 64.728 1166.96 59.1031 1173.85 55.4667C1179.28 52.5511 1186.03 50.8018 1197.84 50.048C1202.52 49.7493 1208.58 50.1191 1216.01 51.1858V78.208H1208.89C1195.85 78.208 1190.46 78.8196 1187.24 80.5404C1185.32 81.5269 1183.76 83.0883 1182.78 85.0062C1181.07 88.2205 1180.44 91.4062 1180.44 104.462V128H1216L1208.89 156.444H1180.44V227.556ZM1038.22 0H1265.78C1269.55 0 1273.17 1.49841 1275.83 4.16559C1278.5 6.83278 1280 10.4503 1280 14.2222V241.778C1280 245.55 1278.5 249.167 1275.83 251.834C1273.17 254.502 1269.55 256 1265.78 256H1038.22C1034.45 256 1030.83 254.502 1028.17 251.834C1025.5 249.167 1024 245.55 1024 241.778V14.2222C1024 10.4503 1025.5 6.83278 1028.17 4.16559C1030.83 1.49841 1034.45 0 1038.22 0Z" fill="#3B68F7"/>
<path d="M1535.57 98.4708C1534.76 96.1327 1533.3 94.079 1531.34 92.5588C1529.39 91.0387 1527.04 90.1173 1524.58 89.9064L1451.84 79.2969L1419.25 13.2108C1418.2 11.0496 1416.57 9.22699 1414.53 7.95169C1412.5 6.67639 1410.15 6 1407.74 6C1405.34 6 1402.99 6.67639 1400.96 7.95169C1398.92 9.22699 1397.29 11.0496 1396.24 13.2108L1363.64 79.169L1290.91 89.9064C1288.55 90.2427 1286.32 91.2353 1284.49 92.7717C1282.66 94.3082 1281.3 96.3268 1280.56 98.5986C1279.88 100.819 1279.82 103.181 1280.38 105.433C1280.94 107.685 1282.11 109.742 1283.75 111.381L1336.55 162.512L1323.76 235.117C1323.25 237.525 1323.44 240.032 1324.31 242.334C1325.19 244.637 1326.71 246.638 1328.69 248.096C1330.68 249.555 1333.04 250.408 1335.5 250.555C1337.96 250.701 1340.41 250.134 1342.55 248.922L1407.74 214.792L1472.94 248.922C1474.73 249.934 1476.76 250.463 1478.82 250.456C1481.52 250.466 1484.16 249.615 1486.36 248.027C1488.34 246.607 1489.88 244.648 1490.78 242.383C1491.69 240.118 1491.93 237.641 1491.47 235.245L1478.69 162.639L1531.48 111.509C1533.33 109.945 1534.69 107.89 1535.41 105.582C1536.14 103.274 1536.19 100.808 1535.57 98.4708ZM1456.96 149.601C1455.48 151.038 1454.37 152.812 1453.72 154.77C1453.08 156.729 1452.92 158.815 1453.25 160.85L1462.45 214.537L1414.39 188.972C1412.52 188.048 1410.47 187.567 1408.38 187.567C1406.3 187.567 1404.24 188.048 1402.38 188.972L1354.31 214.537L1363.52 160.85C1363.85 158.815 1363.69 156.729 1363.04 154.77C1362.4 152.812 1361.29 151.038 1359.81 149.601L1321.46 111.253L1375.28 103.456C1377.35 103.168 1379.32 102.376 1381.01 101.151C1382.7 99.9249 1384.07 98.3025 1384.99 96.4256L1407.74 47.7238L1431.78 96.5534C1432.7 98.4304 1434.06 100.053 1435.76 101.278C1437.45 102.504 1439.42 103.296 1441.49 103.584L1495.31 111.381L1456.96 149.601Z" fill="#D2D2D2"/>
<path d="M1456.96 149.601C1455.48 151.038 1454.37 152.812 1453.72 154.77C1453.08 156.729 1452.92 158.815 1453.25 160.85L1462.45 214.537L1414.39 188.972C1412.52 188.048 1410.47 187.567 1408.38 187.567C1406.3 187.567 1404.24 188.048 1402.38 188.972L1354.31 214.537L1363.52 160.85C1363.85 158.815 1363.69 156.729 1363.04 154.77C1362.4 152.812 1361.29 151.038 1359.81 149.601L1321.46 111.253L1375.28 103.456C1377.35 103.168 1379.32 102.376 1381.01 101.151C1382.7 99.9249 1384.07 98.3025 1384.99 96.4256L1407.74 47.7238L1431.78 96.5534C1432.7 98.4304 1434.06 100.053 1435.76 101.278C1437.45 102.504 1439.42 103.296 1441.49 103.584L1495.31 111.381L1456.96 149.601Z" fill="#D2D2D2"/>
<path d="M1791.57 98.4708C1790.76 96.1327 1789.3 94.079 1787.34 92.5588C1785.39 91.0387 1783.04 90.1173 1780.58 89.9064L1707.84 79.2969L1675.25 13.2108C1674.2 11.0496 1672.57 9.22699 1670.53 7.95169C1668.5 6.67639 1666.15 6 1663.74 6C1661.34 6 1658.99 6.67639 1656.96 7.95169C1654.92 9.22699 1653.29 11.0496 1652.24 13.2108L1619.64 79.169L1546.91 89.9064C1544.55 90.2427 1542.32 91.2353 1540.49 92.7717C1538.66 94.3082 1537.3 96.3268 1536.56 98.5986C1535.88 100.819 1535.82 103.181 1536.38 105.433C1536.94 107.685 1538.11 109.742 1539.75 111.381L1592.55 162.512L1579.76 235.117C1579.25 237.525 1579.44 240.032 1580.31 242.334C1581.19 244.637 1582.71 246.638 1584.69 248.096C1586.68 249.555 1589.04 250.408 1591.5 250.555C1593.96 250.701 1596.41 250.134 1598.55 248.922L1663.74 214.792L1728.94 248.922C1730.73 249.934 1732.76 250.463 1734.82 250.456C1737.52 250.466 1740.16 249.615 1742.36 248.027C1744.34 246.607 1745.88 244.648 1746.78 242.383C1747.69 240.118 1747.93 237.641 1747.47 235.245L1734.69 162.639L1787.48 111.509C1789.33 109.945 1790.69 107.89 1791.41 105.582C1792.14 103.274 1792.19 100.808 1791.57 98.4708ZM1712.96 149.601C1711.48 151.038 1710.37 152.812 1709.72 154.77C1709.08 156.729 1708.92 158.815 1709.25 160.85L1718.45 214.537L1670.39 188.972C1668.52 188.048 1666.47 187.567 1664.38 187.567C1662.3 187.567 1660.24 188.048 1658.38 188.972L1610.31 214.537L1619.52 160.85C1619.85 158.815 1619.69 156.729 1619.04 154.77C1618.4 152.812 1617.29 151.038 1615.81 149.601L1577.46 111.253L1631.28 103.456C1633.35 103.168 1635.32 102.376 1637.01 101.151C1638.7 99.9249 1640.07 98.3025 1640.99 96.4256L1663.74 47.7238L1687.78 96.5534C1688.7 98.4304 1690.06 100.053 1691.76 101.278C1693.45 102.504 1695.42 103.296 1697.49 103.584L1751.31 111.381L1712.96 149.601Z" fill="#FFC900"/>
<path d="M1712.96 149.601C1711.48 151.038 1710.37 152.812 1709.72 154.77C1709.08 156.729 1708.92 158.815 1709.25 160.85L1718.45 214.537L1670.39 188.972C1668.52 188.048 1666.47 187.567 1664.38 187.567C1662.3 187.567 1660.24 188.048 1658.38 188.972L1610.31 214.537L1619.52 160.85C1619.85 158.815 1619.69 156.729 1619.04 154.77C1618.4 152.812 1617.29 151.038 1615.81 149.601L1577.46 111.253L1631.28 103.456C1633.35 103.168 1635.32 102.376 1637.01 101.151C1638.7 99.9249 1640.07 98.3025 1640.99 96.4256L1663.74 47.7238L1687.78 96.5534C1688.7 98.4304 1690.06 100.053 1691.76 101.278C1693.45 102.504 1695.42 103.296 1697.49 103.584L1751.31 111.381L1712.96 149.601Z" fill="#FFC900"/>
<rect x="1792" y="105.29" width="256" height="45.4194" fill="#FF79A4"/>
<rect x="1942.72" width="256" height="45.4194" transform="rotate(90 1942.72 0)" fill="#FF79A4"/>
<path d="M170.667 382.411L85.3332 382.411" stroke="black" stroke-width="20" stroke-linecap="round" stroke-linejoin="round"/>
<path d="M128 429.582L85.3333 382.41L128 335.238" stroke="black" stroke-width="20" stroke-linecap="round" stroke-linejoin="round"/>
<path d="M426.667 382.411L341.333 382.411" stroke="white" stroke-width="20" stroke-linecap="round" stroke-linejoin="round"/>
<path d="M384 429.582L341.333 382.41L384 335.238" stroke="white" stroke-width="20" stroke-linecap="round" stroke-linejoin="round"/>
<path d="M597.333 382.411H682.667" stroke="black" stroke-width="20" stroke-linecap="round" stroke-linejoin="round"/>
<path d="M640 335.238L682.667 382.41L640 429.582" stroke="black" stroke-width="20" stroke-linecap="round" stroke-linejoin="round"/>
<path d="M853.333 382.411H938.667" stroke="white" stroke-width="20" stroke-linecap="round" stroke-linejoin="round"/>
<path d="M896 335.238L938.667 382.41L896 429.582" stroke="white" stroke-width="20" stroke-linecap="round" stroke-linejoin="round"/>
<circle cx="1152" cy="384" r="117" stroke="#01996D" stroke-width="22"/>
<path d="M1200 356L1134 422L1104 392" stroke="#01996D" stroke-width="22.3438" stroke-linecap="round" stroke-linejoin="round"/>
<circle cx="1408" cy="384" r="123" fill="#C4C4C4" fill-opacity="0.5" stroke="white" stroke-width="10"/>
<path d="M1381.49 335.703L1381.5 335.712L1381.52 335.721L1456.18 383.719C1456.28 383.781 1456.34 383.893 1456.34 384C1456.34 384.108 1456.28 384.219 1456.18 384.28C1456.18 384.28 1456.18 384.28 1456.18 384.28L1381.52 432.279L1381.51 432.284L1381.5 432.29C1381.47 432.312 1381.41 432.334 1381.34 432.334C1381.31 432.334 1381.28 432.331 1381.25 432.323C1381.22 432.315 1381.2 432.305 1381.18 432.295L1381.18 432.293C1381.06 432.231 1381 432.123 1381 432V336C1381 335.877 1381.06 335.769 1381.18 335.707L1381.18 335.704L1381.19 335.7C1381.23 335.681 1381.28 335.663 1381.35 335.666C1381.42 335.668 1381.47 335.688 1381.49 335.703ZM1381.67 422.229V431.387L1389.37 426.435L1448.84 388.206L1455.38 384L1448.84 379.794L1389.37 341.565L1381.67 336.613V345.771V422.229Z" fill="white" stroke="white" stroke-width="10"/>
<path d="M1704.77 337.179L1745.62 296.338M1768.96 273L1745.62 296.338L1768.96 273ZM1656.8 385.137C1662.83 391.082 1667.62 398.16 1670.9 405.964C1674.18 413.767 1675.88 422.142 1675.91 430.606C1675.94 439.071 1674.29 447.457 1671.06 455.282C1667.84 463.108 1663.09 470.217 1657.11 476.203C1651.12 482.188 1644.01 486.93 1636.18 490.156C1628.35 493.382 1619.97 495.028 1611.5 495C1603.03 494.971 1594.66 493.269 1586.85 489.991C1579.05 486.712 1571.97 481.923 1566.02 475.897C1554.33 463.793 1547.86 447.582 1548 430.754C1548.15 413.927 1554.9 397.83 1566.8 385.931C1578.7 374.032 1594.8 367.282 1611.64 367.136C1628.47 366.99 1644.68 373.458 1656.79 385.149L1656.8 385.137ZM1656.8 385.137L1704.77 337.179L1656.8 385.137ZM1704.77 337.179L1739.79 372.185L1780.64 331.344L1745.62 296.338L1704.77 337.179Z" stroke="black" stroke-width="23.3376" stroke-linecap="round" stroke-linejoin="round"/>
<path d="M1960.77 337.179L2001.62 296.338M2024.96 273L2001.62 296.338L2024.96 273ZM1912.8 385.137C1918.83 391.082 1923.62 398.16 1926.9 405.964C1930.18 413.767 1931.88 422.142 1931.91 430.606C1931.94 439.071 1930.29 447.457 1927.06 455.282C1923.84 463.108 1919.09 470.217 1913.11 476.203C1907.12 482.188 1900.01 486.93 1892.18 490.156C1884.35 493.382 1875.97 495.028 1867.5 495C1859.03 494.971 1850.66 493.269 1842.85 489.991C1835.05 486.712 1827.97 481.923 1822.02 475.897C1810.33 463.793 1803.86 447.582 1804 430.754C1804.15 413.927 1810.9 397.83 1822.8 385.931C1834.7 374.032 1850.8 367.282 1867.64 367.136C1884.47 366.99 1900.68 373.458 1912.79 385.149L1912.8 385.137ZM1912.8 385.137L1960.77 337.179L1912.8 385.137ZM1960.77 337.179L1995.79 372.185L2036.64 331.344L2001.62 296.338L1960.77 337.179Z" stroke="white" stroke-width="23.3376" stroke-linecap="round" stroke-linejoin="round"/>
<circle cx="128" cy="640" r="128" fill="#4D78F9"/>
<path d="M384 768C417.948 768 450.505 754.514 474.51 730.51C498.514 706.505 512 673.948 512 640C512 606.052 498.514 573.495 474.51 549.49C450.505 525.486 417.948 512 384 512L384 640V768Z" fill="#4D78F9"/>
<path d="M512 512C512 545.618 518.622 578.908 531.487 609.967C544.352 641.026 563.209 669.248 586.981 693.019C610.752 716.791 638.974 735.648 670.033 748.513C701.092 761.378 734.382 768 768 768L768 512L512 512Z" fill="#E7D9FF"/>
<g clip-path="url(#clip1)">
<path d="M839.01 651.423L859.649 630.784L878.051 649.187L896.029 631.181L914.658 649.81L934.475 629.992L953.104 648.649" stroke="#E95584" stroke-width="5.66226" stroke-miterlimit="10"/>
</g>
<g clip-path="url(#clip2)">
<path d="M1095.01 651.423L1115.65 630.784L1134.05 649.187L1152.03 631.181L1170.66 649.81L1190.48 629.992L1209.1 648.649" stroke="#FDD25D" stroke-width="5.66226" stroke-miterlimit="10"/>
</g>
<path d="M1286.74 525.48C1290.46 525.48 1293.48 522.462 1293.48 518.74C1293.48 515.018 1290.46 512 1286.74 512C1283.02 512 1280 515.018 1280 518.74C1280 522.462 1283.02 525.48 1286.74 525.48Z" fill="#F2F2F2"/>
<path d="M1367.58 525.48C1371.3 525.48 1374.32 522.462 1374.32 518.74C1374.32 515.018 1371.3 512 1367.58 512C1363.86 512 1360.84 515.018 1360.84 518.74C1360.84 522.462 1363.86 525.48 1367.58 525.48Z" fill="#F2F2F2"/>
<path d="M1448.42 525.48C1452.14 525.48 1455.16 522.462 1455.16 518.74C1455.16 515.018 1452.14 512 1448.42 512C1444.7 512 1441.68 515.018 1441.68 518.74C1441.68 522.462 1444.7 525.48 1448.42 525.48Z" fill="#F2F2F2"/>
<path d="M1327.16 525.48C1330.88 525.48 1333.9 522.462 1333.9 518.74C1333.9 515.018 1330.88 512 1327.16 512C1323.44 512 1320.42 515.018 1320.42 518.74C1320.42 522.462 1323.44 525.48 1327.16 525.48Z" fill="#F2F2F2"/>
<path d="M1408 525.48C1411.72 525.48 1414.74 522.462 1414.74 518.74C1414.74 515.018 1411.72 512 1408 512C1404.28 512 1401.26 515.018 1401.26 518.74C1401.26 522.462 1404.28 525.48 1408 525.48Z" fill="#F2F2F2"/>
<path d="M1488.84 525.48C1492.56 525.48 1495.58 522.462 1495.58 518.74C1495.58 515.018 1492.56 512 1488.84 512C1485.12 512 1482.1 515.018 1482.1 518.74C1482.1 522.462 1485.12 525.48 1488.84 525.48Z" fill="#F2F2F2"/>
<path d="M1529.26 525.48C1532.98 525.48 1536 522.462 1536 518.74C1536 515.018 1532.98 512 1529.26 512C1525.54 512 1522.52 515.018 1522.52 518.74C1522.52 522.462 1525.54 525.48 1529.26 525.48Z" fill="#F2F2F2"/>
<path d="M1286.74 606.32C1290.46 606.32 1293.48 603.302 1293.48 599.58C1293.48 595.858 1290.46 592.84 1286.74 592.84C1283.02 592.84 1280 595.858 1280 599.58C1280 603.302 1283.02 606.32 1286.74 606.32Z" fill="#F2F2F2"/>
<path d="M1367.58 606.32C1371.3 606.32 1374.32 603.302 1374.32 599.58C1374.32 595.858 1371.3 592.84 1367.58 592.84C1363.86 592.84 1360.84 595.858 1360.84 599.58C1360.84 603.302 1363.86 606.32 1367.58 606.32Z" fill="#F2F2F2"/>
<path d="M1448.42 606.32C1452.14 606.32 1455.16 603.302 1455.16 599.58C1455.16 595.858 1452.14 592.84 1448.42 592.84C1444.7 592.84 1441.68 595.858 1441.68 599.58C1441.68 603.302 1444.7 606.32 1448.42 606.32Z" fill="#F2F2F2"/>
<path d="M1327.16 606.32C1330.88 606.32 1333.9 603.302 1333.9 599.58C1333.9 595.858 1330.88 592.84 1327.16 592.84C1323.44 592.84 1320.42 595.858 1320.42 599.58C1320.42 603.302 1323.44 606.32 1327.16 606.32Z" fill="#F2F2F2"/>
<path d="M1408 606.32C1411.72 606.32 1414.74 603.302 1414.74 599.58C1414.74 595.858 1411.72 592.84 1408 592.84C1404.28 592.84 1401.26 595.858 1401.26 599.58C1401.26 603.302 1404.28 606.32 1408 606.32Z" fill="#F2F2F2"/>
<path d="M1488.84 606.32C1492.56 606.32 1495.58 603.302 1495.58 599.58C1495.58 595.858 1492.56 592.84 1488.84 592.84C1485.12 592.84 1482.1 595.858 1482.1 599.58C1482.1 603.302 1485.12 606.32 1488.84 606.32Z" fill="#F2F2F2"/>
<path d="M1529.26 606.32C1532.98 606.32 1536 603.302 1536 599.58C1536 595.858 1532.98 592.84 1529.26 592.84C1525.54 592.84 1522.52 595.858 1522.52 599.58C1522.52 603.302 1525.54 606.32 1529.26 606.32Z" fill="#F2F2F2"/>
<path d="M1286.74 687.16C1290.46 687.16 1293.48 684.142 1293.48 680.42C1293.48 676.698 1290.46 673.68 1286.74 673.68C1283.02 673.68 1280 676.698 1280 680.42C1280 684.142 1283.02 687.16 1286.74 687.16Z" fill="#F2F2F2"/>
<path d="M1367.58 687.16C1371.3 687.16 1374.32 684.142 1374.32 680.42C1374.32 676.698 1371.3 673.68 1367.58 673.68C1363.86 673.68 1360.84 676.698 1360.84 680.42C1360.84 684.142 1363.86 687.16 1367.58 687.16Z" fill="#F2F2F2"/>
<path d="M1448.42 687.16C1452.14 687.16 1455.16 684.142 1455.16 680.42C1455.16 676.698 1452.14 673.68 1448.42 673.68C1444.7 673.68 1441.68 676.698 1441.68 680.42C1441.68 684.142 1444.7 687.16 1448.42 687.16Z" fill="#F2F2F2"/>
<path d="M1327.16 687.16C1330.88 687.16 1333.9 684.142 1333.9 680.42C1333.9 676.698 1330.88 673.68 1327.16 673.68C1323.44 673.68 1320.42 676.698 1320.42 680.42C1320.42 684.142 1323.44 687.16 1327.16 687.16Z" fill="#F2F2F2"/>
<path d="M1408 687.16C1411.72 687.16 1414.74 684.142 1414.74 680.42C1414.74 676.698 1411.72 673.68 1408 673.68C1404.28 673.68 1401.26 676.698 1401.26 680.42C1401.26 684.142 1404.28 687.16 1408 687.16Z" fill="#F2F2F2"/>
<path d="M1488.84 687.16C1492.56 687.16 1495.58 684.142 1495.58 680.42C1495.58 676.698 1492.56 673.68 1488.84 673.68C1485.12 673.68 1482.1 676.698 1482.1 680.42C1482.1 684.142 1485.12 687.16 1488.84 687.16Z" fill="#F2F2F2"/>
<path d="M1529.26 687.16C1532.98 687.16 1536 684.142 1536 680.42C1536 676.698 1532.98 673.68 1529.26 673.68C1525.54 673.68 1522.52 676.698 1522.52 680.42C1522.52 684.142 1525.54 687.16 1529.26 687.16Z" fill="#F2F2F2"/>
<path d="M1286.74 565.9C1290.46 565.9 1293.48 562.882 1293.48 559.16C1293.48 555.438 1290.46 552.42 1286.74 552.42C1283.02 552.42 1280 555.438 1280 559.16C1280 562.882 1283.02 565.9 1286.74 565.9Z" fill="#F2F2F2"/>
<path d="M1367.58 565.9C1371.3 565.9 1374.32 562.882 1374.32 559.16C1374.32 555.438 1371.3 552.42 1367.58 552.42C1363.86 552.42 1360.84 555.438 1360.84 559.16C1360.84 562.882 1363.86 565.9 1367.58 565.9Z" fill="#F2F2F2"/>
<path d="M1448.42 565.9C1452.14 565.9 1455.16 562.882 1455.16 559.16C1455.16 555.438 1452.14 552.42 1448.42 552.42C1444.7 552.42 1441.68 555.438 1441.68 559.16C1441.68 562.882 1444.7 565.9 1448.42 565.9Z" fill="#F2F2F2"/>
<path d="M1327.16 565.9C1330.88 565.9 1333.9 562.882 1333.9 559.16C1333.9 555.438 1330.88 552.42 1327.16 552.42C1323.44 552.42 1320.42 555.438 1320.42 559.16C1320.42 562.882 1323.44 565.9 1327.16 565.9Z" fill="#F2F2F2"/>
<path d="M1408 565.9C1411.72 565.9 1414.74 562.882 1414.74 559.16C1414.74 555.438 1411.72 552.42 1408 552.42C1404.28 552.42 1401.26 555.438 1401.26 559.16C1401.26 562.882 1404.28 565.9 1408 565.9Z" fill="#F2F2F2"/>
<path d="M1488.84 565.9C1492.56 565.9 1495.58 562.882 1495.58 559.16C1495.58 555.438 1492.56 552.42 1488.84 552.42C1485.12 552.42 1482.1 555.438 1482.1 559.16C1482.1 562.882 1485.12 565.9 1488.84 565.9Z" fill="#F2F2F2"/>
<path d="M1529.26 565.9C1532.98 565.9 1536 562.882 1536 559.16C1536 555.438 1532.98 552.42 1529.26 552.42C1525.54 552.42 1522.52 555.438 1522.52 559.16C1522.52 562.882 1525.54 565.9 1529.26 565.9Z" fill="#F2F2F2"/>
<path d="M1286.74 646.74C1290.46 646.74 1293.48 643.722 1293.48 640C1293.48 636.278 1290.46 633.26 1286.74 633.26C1283.02 633.26 1280 636.278 1280 640C1280 643.722 1283.02 646.74 1286.74 646.74Z" fill="#F2F2F2"/>
<path d="M1367.58 646.74C1371.3 646.74 1374.32 643.722 1374.32 640C1374.32 636.278 1371.3 633.26 1367.58 633.26C1363.86 633.26 1360.84 636.278 1360.84 640C1360.84 643.722 1363.86 646.74 1367.58 646.74Z" fill="#F2F2F2"/>
<path d="M1448.42 646.74C1452.14 646.74 1455.16 643.722 1455.16 640C1455.16 636.278 1452.14 633.26 1448.42 633.26C1444.7 633.26 1441.68 636.278 1441.68 640C1441.68 643.722 1444.7 646.74 1448.42 646.74Z" fill="#F2F2F2"/>
<path d="M1327.16 646.74C1330.88 646.74 1333.9 643.722 1333.9 640C1333.9 636.278 1330.88 633.26 1327.16 633.26C1323.44 633.26 1320.42 636.278 1320.42 640C1320.42 643.722 1323.44 646.74 1327.16 646.74Z" fill="#F2F2F2"/>
<path d="M1408 646.74C1411.72 646.74 1414.74 643.722 1414.74 640C1414.74 636.278 1411.72 633.26 1408 633.26C1404.28 633.26 1401.26 636.278 1401.26 640C1401.26 643.722 1404.28 646.74 1408 646.74Z" fill="#F2F2F2"/>
<path d="M1488.84 646.74C1492.56 646.74 1495.58 643.722 1495.58 640C1495.58 636.278 1492.56 633.26 1488.84 633.26C1485.12 633.26 1482.1 636.278 1482.1 640C1482.1 643.722 1485.12 646.74 1488.84 646.74Z" fill="#F2F2F2"/>
<path d="M1529.26 646.74C1532.98 646.74 1536 643.722 1536 640C1536 636.278 1532.98 633.26 1529.26 633.26C1525.54 633.26 1522.52 636.278 1522.52 640C1522.52 643.722 1525.54 646.74 1529.26 646.74Z" fill="#F2F2F2"/>
<path d="M1286.74 727.58C1290.46 727.58 1293.48 724.562 1293.48 720.84C1293.48 717.118 1290.46 714.1 1286.74 714.1C1283.02 714.1 1280 717.118 1280 720.84C1280 724.562 1283.02 727.58 1286.74 727.58Z" fill="#F2F2F2"/>
<path d="M1286.74 768C1290.46 768 1293.48 764.982 1293.48 761.26C1293.48 757.538 1290.46 754.52 1286.74 754.52C1283.02 754.52 1280 757.538 1280 761.26C1280 764.982 1283.02 768 1286.74 768Z" fill="#F2F2F2"/>
<path d="M1367.58 727.58C1371.3 727.58 1374.32 724.562 1374.32 720.84C1374.32 717.118 1371.3 714.1 1367.58 714.1C1363.86 714.1 1360.84 717.118 1360.84 720.84C1360.84 724.562 1363.86 727.58 1367.58 727.58Z" fill="#F2F2F2"/>
<path d="M1367.58 768C1371.3 768 1374.32 764.982 1374.32 761.26C1374.32 757.538 1371.3 754.52 1367.58 754.52C1363.86 754.52 1360.84 757.538 1360.84 761.26C1360.84 764.982 1363.86 768 1367.58 768Z" fill="#F2F2F2"/>
<path d="M1448.42 727.58C1452.14 727.58 1455.16 724.562 1455.16 720.84C1455.16 717.118 1452.14 714.1 1448.42 714.1C1444.7 714.1 1441.68 717.118 1441.68 720.84C1441.68 724.562 1444.7 727.58 1448.42 727.58Z" fill="#F2F2F2"/>
<path d="M1448.42 768C1452.14 768 1455.16 764.982 1455.16 761.26C1455.16 757.538 1452.14 754.52 1448.42 754.52C1444.7 754.52 1441.68 757.538 1441.68 761.26C1441.68 764.982 1444.7 768 1448.42 768Z" fill="#F2F2F2"/>
<path d="M1327.16 727.58C1330.88 727.58 1333.9 724.562 1333.9 720.84C1333.9 717.118 1330.88 714.1 1327.16 714.1C1323.44 714.1 1320.42 717.118 1320.42 720.84C1320.42 724.562 1323.44 727.58 1327.16 727.58Z" fill="#F2F2F2"/>
<path d="M1327.16 768C1330.88 768 1333.9 764.982 1333.9 761.26C1333.9 757.538 1330.88 754.52 1327.16 754.52C1323.44 754.52 1320.42 757.538 1320.42 761.26C1320.42 764.982 1323.44 768 1327.16 768Z" fill="#F2F2F2"/>
<path d="M1408 727.58C1411.72 727.58 1414.74 724.562 1414.74 720.84C1414.74 717.118 1411.72 714.1 1408 714.1C1404.28 714.1 1401.26 717.118 1401.26 720.84C1401.26 724.562 1404.28 727.58 1408 727.58Z" fill="#F2F2F2"/>
<path d="M1408 768C1411.72 768 1414.74 764.982 1414.74 761.26C1414.74 757.538 1411.72 754.52 1408 754.52C1404.28 754.52 1401.26 757.538 1401.26 761.26C1401.26 764.982 1404.28 768 1408 768Z" fill="#F2F2F2"/>
<path d="M1488.84 727.58C1492.56 727.58 1495.58 724.562 1495.58 720.84C1495.58 717.118 1492.56 714.1 1488.84 714.1C1485.12 714.1 1482.1 717.118 1482.1 720.84C1482.1 724.562 1485.12 727.58 1488.84 727.58Z" fill="#F2F2F2"/>
<path d="M1529.26 727.58C1532.98 727.58 1536 724.562 1536 720.84C1536 717.118 1532.98 714.1 1529.26 714.1C1525.54 714.1 1522.52 717.118 1522.52 720.84C1522.52 724.562 1525.54 727.58 1529.26 727.58Z" fill="#F2F2F2"/>
<path d="M1488.84 768C1492.56 768 1495.58 764.982 1495.58 761.26C1495.58 757.538 1492.56 754.52 1488.84 754.52C1485.12 754.52 1482.1 757.538 1482.1 761.26C1482.1 764.982 1485.12 768 1488.84 768Z" fill="#F2F2F2"/>
<path d="M1529.26 768C1532.98 768 1536 764.982 1536 761.26C1536 757.538 1532.98 754.52 1529.26 754.52C1525.54 754.52 1522.52 757.538 1522.52 761.26C1522.52 764.982 1525.54 768 1529.26 768Z" fill="#F2F2F2"/>
<path d="M1542.74 525.48C1546.46 525.48 1549.48 522.462 1549.48 518.74C1549.48 515.018 1546.46 512 1542.74 512C1539.02 512 1536 515.018 1536 518.74C1536 522.462 1539.02 525.48 1542.74 525.48Z" fill="#E95584"/>
<path d="M1623.58 525.48C1627.3 525.48 1630.32 522.462 1630.32 518.74C1630.32 515.018 1627.3 512 1623.58 512C1619.86 512 1616.84 515.018 1616.84 518.74C1616.84 522.462 1619.86 525.48 1623.58 525.48Z" fill="#E95584"/>
<path d="M1704.42 525.48C1708.14 525.48 1711.16 522.462 1711.16 518.74C1711.16 515.018 1708.14 512 1704.42 512C1700.7 512 1697.68 515.018 1697.68 518.74C1697.68 522.462 1700.7 525.48 1704.42 525.48Z" fill="#E95584"/>
<path d="M1583.16 525.48C1586.88 525.48 1589.9 522.462 1589.9 518.74C1589.9 515.018 1586.88 512 1583.16 512C1579.44 512 1576.42 515.018 1576.42 518.74C1576.42 522.462 1579.44 525.48 1583.16 525.48Z" fill="#E95584"/>
<path d="M1664 525.48C1667.72 525.48 1670.74 522.462 1670.74 518.74C1670.74 515.018 1667.72 512 1664 512C1660.28 512 1657.26 515.018 1657.26 518.74C1657.26 522.462 1660.28 525.48 1664 525.48Z" fill="#E95584"/>
<path d="M1744.84 525.48C1748.56 525.48 1751.58 522.462 1751.58 518.74C1751.58 515.018 1748.56 512 1744.84 512C1741.12 512 1738.1 515.018 1738.1 518.74C1738.1 522.462 1741.12 525.48 1744.84 525.48Z" fill="#E95584"/>
<path d="M1785.26 525.48C1788.98 525.48 1792 522.462 1792 518.74C1792 515.018 1788.98 512 1785.26 512C1781.54 512 1778.52 515.018 1778.52 518.74C1778.52 522.462 1781.54 525.48 1785.26 525.48Z" fill="#E95584"/>
<path d="M1542.74 606.32C1546.46 606.32 1549.48 603.302 1549.48 599.58C1549.48 595.858 1546.46 592.84 1542.74 592.84C1539.02 592.84 1536 595.858 1536 599.58C1536 603.302 1539.02 606.32 1542.74 606.32Z" fill="#E95584"/>
<path d="M1623.58 606.32C1627.3 606.32 1630.32 603.302 1630.32 599.58C1630.32 595.858 1627.3 592.84 1623.58 592.84C1619.86 592.84 1616.84 595.858 1616.84 599.58C1616.84 603.302 1619.86 606.32 1623.58 606.32Z" fill="#E95584"/>
<path d="M1704.42 606.32C1708.14 606.32 1711.16 603.302 1711.16 599.58C1711.16 595.858 1708.14 592.84 1704.42 592.84C1700.7 592.84 1697.68 595.858 1697.68 599.58C1697.68 603.302 1700.7 606.32 1704.42 606.32Z" fill="#E95584"/>
<path d="M1583.16 606.32C1586.88 606.32 1589.9 603.302 1589.9 599.58C1589.9 595.858 1586.88 592.84 1583.16 592.84C1579.44 592.84 1576.42 595.858 1576.42 599.58C1576.42 603.302 1579.44 606.32 1583.16 606.32Z" fill="#E95584"/>
<path d="M1664 606.32C1667.72 606.32 1670.74 603.302 1670.74 599.58C1670.74 595.858 1667.72 592.84 1664 592.84C1660.28 592.84 1657.26 595.858 1657.26 599.58C1657.26 603.302 1660.28 606.32 1664 606.32Z" fill="#E95584"/>
<path d="M1744.84 606.32C1748.56 606.32 1751.58 603.302 1751.58 599.58C1751.58 595.858 1748.56 592.84 1744.84 592.84C1741.12 592.84 1738.1 595.858 1738.1 599.58C1738.1 603.302 1741.12 606.32 1744.84 606.32Z" fill="#E95584"/>
<path d="M1785.26 606.32C1788.98 606.32 1792 603.302 1792 599.58C1792 595.858 1788.98 592.84 1785.26 592.84C1781.54 592.84 1778.52 595.858 1778.52 599.58C1778.52 603.302 1781.54 606.32 1785.26 606.32Z" fill="#E95584"/>
<path d="M1542.74 687.16C1546.46 687.16 1549.48 684.142 1549.48 680.42C1549.48 676.698 1546.46 673.68 1542.74 673.68C1539.02 673.68 1536 676.698 1536 680.42C1536 684.142 1539.02 687.16 1542.74 687.16Z" fill="#E95584"/>
<path d="M1623.58 687.16C1627.3 687.16 1630.32 684.142 1630.32 680.42C1630.32 676.698 1627.3 673.68 1623.58 673.68C1619.86 673.68 1616.84 676.698 1616.84 680.42C1616.84 684.142 1619.86 687.16 1623.58 687.16Z" fill="#E95584"/>
<path d="M1704.42 687.16C1708.14 687.16 1711.16 684.142 1711.16 680.42C1711.16 676.698 1708.14 673.68 1704.42 673.68C1700.7 673.68 1697.68 676.698 1697.68 680.42C1697.68 684.142 1700.7 687.16 1704.42 687.16Z" fill="#E95584"/>
<path d="M1583.16 687.16C1586.88 687.16 1589.9 684.142 1589.9 680.42C1589.9 676.698 1586.88 673.68 1583.16 673.68C1579.44 673.68 1576.42 676.698 1576.42 680.42C1576.42 684.142 1579.44 687.16 1583.16 687.16Z" fill="#E95584"/>
<path d="M1664 687.16C1667.72 687.16 1670.74 684.142 1670.74 680.42C1670.74 676.698 1667.72 673.68 1664 673.68C1660.28 673.68 1657.26 676.698 1657.26 680.42C1657.26 684.142 1660.28 687.16 1664 687.16Z" fill="#E95584"/>
<path d="M1744.84 687.16C1748.56 687.16 1751.58 684.142 1751.58 680.42C1751.58 676.698 1748.56 673.68 1744.84 673.68C1741.12 673.68 1738.1 676.698 1738.1 680.42C1738.1 684.142 1741.12 687.16 1744.84 687.16Z" fill="#E95584"/>
<path d="M1785.26 687.16C1788.98 687.16 1792 684.142 1792 680.42C1792 676.698 1788.98 673.68 1785.26 673.68C1781.54 673.68 1778.52 676.698 1778.52 680.42C1778.52 684.142 1781.54 687.16 1785.26 687.16Z" fill="#E95584"/>
<path d="M1542.74 565.9C1546.46 565.9 1549.48 562.882 1549.48 559.16C1549.48 555.438 1546.46 552.42 1542.74 552.42C1539.02 552.42 1536 555.438 1536 559.16C1536 562.882 1539.02 565.9 1542.74 565.9Z" fill="#E95584"/>
<path d="M1623.58 565.9C1627.3 565.9 1630.32 562.882 1630.32 559.16C1630.32 555.438 1627.3 552.42 1623.58 552.42C1619.86 552.42 1616.84 555.438 1616.84 559.16C1616.84 562.882 1619.86 565.9 1623.58 565.9Z" fill="#E95584"/>
<path d="M1704.42 565.9C1708.14 565.9 1711.16 562.882 1711.16 559.16C1711.16 555.438 1708.14 552.42 1704.42 552.42C1700.7 552.42 1697.68 555.438 1697.68 559.16C1697.68 562.882 1700.7 565.9 1704.42 565.9Z" fill="#E95584"/>
<path d="M1583.16 565.9C1586.88 565.9 1589.9 562.882 1589.9 559.16C1589.9 555.438 1586.88 552.42 1583.16 552.42C1579.44 552.42 1576.42 555.438 1576.42 559.16C1576.42 562.882 1579.44 565.9 1583.16 565.9Z" fill="#E95584"/>
<path d="M1664 565.9C1667.72 565.9 1670.74 562.882 1670.74 559.16C1670.74 555.438 1667.72 552.42 1664 552.42C1660.28 552.42 1657.26 555.438 1657.26 559.16C1657.26 562.882 1660.28 565.9 1664 565.9Z" fill="#E95584"/>
<path d="M1744.84 565.9C1748.56 565.9 1751.58 562.882 1751.58 559.16C1751.58 555.438 1748.56 552.42 1744.84 552.42C1741.12 552.42 1738.1 555.438 1738.1 559.16C1738.1 562.882 1741.12 565.9 1744.84 565.9Z" fill="#E95584"/>
<path d="M1785.26 565.9C1788.98 565.9 1792 562.882 1792 559.16C1792 555.438 1788.98 552.42 1785.26 552.42C1781.54 552.42 1778.52 555.438 1778.52 559.16C1778.52 562.882 1781.54 565.9 1785.26 565.9Z" fill="#E95584"/>
<path d="M1542.74 646.74C1546.46 646.74 1549.48 643.722 1549.48 640C1549.48 636.278 1546.46 633.26 1542.74 633.26C1539.02 633.26 1536 636.278 1536 640C1536 643.722 1539.02 646.74 1542.74 646.74Z" fill="#E95584"/>
<path d="M1623.58 646.74C1627.3 646.74 1630.32 643.722 1630.32 640C1630.32 636.278 1627.3 633.26 1623.58 633.26C1619.86 633.26 1616.84 636.278 1616.84 640C1616.84 643.722 1619.86 646.74 1623.58 646.74Z" fill="#E95584"/>
<path d="M1704.42 646.74C1708.14 646.74 1711.16 643.722 1711.16 640C1711.16 636.278 1708.14 633.26 1704.42 633.26C1700.7 633.26 1697.68 636.278 1697.68 640C1697.68 643.722 1700.7 646.74 1704.42 646.74Z" fill="#E95584"/>
<path d="M1583.16 646.74C1586.88 646.74 1589.9 643.722 1589.9 640C1589.9 636.278 1586.88 633.26 1583.16 633.26C1579.44 633.26 1576.42 636.278 1576.42 640C1576.42 643.722 1579.44 646.74 1583.16 646.74Z" fill="#E95584"/>
<path d="M1664 646.74C1667.72 646.74 1670.74 643.722 1670.74 640C1670.74 636.278 1667.72 633.26 1664 633.26C1660.28 633.26 1657.26 636.278 1657.26 640C1657.26 643.722 1660.28 646.74 1664 646.74Z" fill="#E95584"/>
<path d="M1744.84 646.74C1748.56 646.74 1751.58 643.722 1751.58 640C1751.58 636.278 1748.56 633.26 1744.84 633.26C1741.12 633.26 1738.1 636.278 1738.1 640C1738.1 643.722 1741.12 646.74 1744.84 646.74Z" fill="#E95584"/>
<path d="M1785.26 646.74C1788.98 646.74 1792 643.722 1792 640C1792 636.278 1788.98 633.26 1785.26 633.26C1781.54 633.26 1778.52 636.278 1778.52 640C1778.52 643.722 1781.54 646.74 1785.26 646.74Z" fill="#E95584"/>
<path d="M1542.74 727.58C1546.46 727.58 1549.48 724.562 1549.48 720.84C1549.48 717.118 1546.46 714.1 1542.74 714.1C1539.02 714.1 1536 717.118 1536 720.84C1536 724.562 1539.02 727.58 1542.74 727.58Z" fill="#E95584"/>
<path d="M1542.74 768C1546.46 768 1549.48 764.982 1549.48 761.26C1549.48 757.538 1546.46 754.52 1542.74 754.52C1539.02 754.52 1536 757.538 1536 761.26C1536 764.982 1539.02 768 1542.74 768Z" fill="#E95584"/>
<path d="M1623.58 727.58C1627.3 727.58 1630.32 724.562 1630.32 720.84C1630.32 717.118 1627.3 714.1 1623.58 714.1C1619.86 714.1 1616.84 717.118 1616.84 720.84C1616.84 724.562 1619.86 727.58 1623.58 727.58Z" fill="#E95584"/>
<path d="M1623.58 768C1627.3 768 1630.32 764.982 1630.32 761.26C1630.32 757.538 1627.3 754.52 1623.58 754.52C1619.86 754.52 1616.84 757.538 1616.84 761.26C1616.84 764.982 1619.86 768 1623.58 768Z" fill="#E95584"/>
<path d="M1704.42 727.58C1708.14 727.58 1711.16 724.562 1711.16 720.84C1711.16 717.118 1708.14 714.1 1704.42 714.1C1700.7 714.1 1697.68 717.118 1697.68 720.84C1697.68 724.562 1700.7 727.58 1704.42 727.58Z" fill="#E95584"/>
<path d="M1704.42 768C1708.14 768 1711.16 764.982 1711.16 761.26C1711.16 757.538 1708.14 754.52 1704.42 754.52C1700.7 754.52 1697.68 757.538 1697.68 761.26C1697.68 764.982 1700.7 768 1704.42 768Z" fill="#E95584"/>
<path d="M1583.16 727.58C1586.88 727.58 1589.9 724.562 1589.9 720.84C1589.9 717.118 1586.88 714.1 1583.16 714.1C1579.44 714.1 1576.42 717.118 1576.42 720.84C1576.42 724.562 1579.44 727.58 1583.16 727.58Z" fill="#E95584"/>
<path d="M1583.16 768C1586.88 768 1589.9 764.982 1589.9 761.26C1589.9 757.538 1586.88 754.52 1583.16 754.52C1579.44 754.52 1576.42 757.538 1576.42 761.26C1576.42 764.982 1579.44 768 1583.16 768Z" fill="#E95584"/>
<path d="M1664 727.58C1667.72 727.58 1670.74 724.562 1670.74 720.84C1670.74 717.118 1667.72 714.1 1664 714.1C1660.28 714.1 1657.26 717.118 1657.26 720.84C1657.26 724.562 1660.28 727.58 1664 727.58Z" fill="#E95584"/>
<path d="M1664 768C1667.72 768 1670.74 764.982 1670.74 761.26C1670.74 757.538 1667.72 754.52 1664 754.52C1660.28 754.52 1657.26 757.538 1657.26 761.26C1657.26 764.982 1660.28 768 1664 768Z" fill="#E95584"/>
<path d="M1744.84 727.58C1748.56 727.58 1751.58 724.562 1751.58 720.84C1751.58 717.118 1748.56 714.1 1744.84 714.1C1741.12 714.1 1738.1 717.118 1738.1 720.84C1738.1 724.562 1741.12 727.58 1744.84 727.58Z" fill="#E95584"/>
<path d="M1785.26 727.58C1788.98 727.58 1792 724.562 1792 720.84C1792 717.118 1788.98 714.1 1785.26 714.1C1781.54 714.1 1778.52 717.118 1778.52 720.84C1778.52 724.562 1781.54 727.58 1785.26 727.58Z" fill="#E95584"/>
<path d="M1744.84 768C1748.56 768 1751.58 764.982 1751.58 761.26C1751.58 757.538 1748.56 754.52 1744.84 754.52C1741.12 754.52 1738.1 757.538 1738.1 761.26C1738.1 764.982 1741.12 768 1744.84 768Z" fill="#E95584"/>
<path d="M1785.26 768C1788.98 768 1792 764.982 1792 761.26C1792 757.538 1788.98 754.52 1785.26 754.52C1781.54 754.52 1778.52 757.538 1778.52 761.26C1778.52 764.982 1781.54 768 1785.26 768Z" fill="#E95584"/>
<path d="M1798.74 525.48C1802.46 525.48 1805.48 522.462 1805.48 518.74C1805.48 515.018 1802.46 512 1798.74 512C1795.02 512 1792 515.018 1792 518.74C1792 522.462 1795.02 525.48 1798.74 525.48Z" fill="white"/>
<path d="M1879.58 525.48C1883.3 525.48 1886.32 522.462 1886.32 518.74C1886.32 515.018 1883.3 512 1879.58 512C1875.86 512 1872.84 515.018 1872.84 518.74C1872.84 522.462 1875.86 525.48 1879.58 525.48Z" fill="white"/>
<path d="M1960.42 525.48C1964.14 525.48 1967.16 522.462 1967.16 518.74C1967.16 515.018 1964.14 512 1960.42 512C1956.7 512 1953.68 515.018 1953.68 518.74C1953.68 522.462 1956.7 525.48 1960.42 525.48Z" fill="white"/>
<path d="M1839.16 525.48C1842.88 525.48 1845.9 522.462 1845.9 518.74C1845.9 515.018 1842.88 512 1839.16 512C1835.44 512 1832.42 515.018 1832.42 518.74C1832.42 522.462 1835.44 525.48 1839.16 525.48Z" fill="white"/>
<path d="M1920 525.48C1923.72 525.48 1926.74 522.462 1926.74 518.74C1926.74 515.018 1923.72 512 1920 512C1916.28 512 1913.26 515.018 1913.26 518.74C1913.26 522.462 1916.28 525.48 1920 525.48Z" fill="white"/>
<path d="M2000.84 525.48C2004.56 525.48 2007.58 522.462 2007.58 518.74C2007.58 515.018 2004.56 512 2000.84 512C1997.12 512 1994.1 515.018 1994.1 518.74C1994.1 522.462 1997.12 525.48 2000.84 525.48Z" fill="white"/>
<path d="M2041.26 525.48C2044.98 525.48 2048 522.462 2048 518.74C2048 515.018 2044.98 512 2041.26 512C2037.54 512 2034.52 515.018 2034.52 518.74C2034.52 522.462 2037.54 525.48 2041.26 525.48Z" fill="white"/>
<path d="M1798.74 606.32C1802.46 606.32 1805.48 603.302 1805.48 599.58C1805.48 595.858 1802.46 592.84 1798.74 592.84C1795.02 592.84 1792 595.858 1792 599.58C1792 603.302 1795.02 606.32 1798.74 606.32Z" fill="white"/>
<path d="M1879.58 606.32C1883.3 606.32 1886.32 603.302 1886.32 599.58C1886.32 595.858 1883.3 592.84 1879.58 592.84C1875.86 592.84 1872.84 595.858 1872.84 599.58C1872.84 603.302 1875.86 606.32 1879.58 606.32Z" fill="white"/>
<path d="M1960.42 606.32C1964.14 606.32 1967.16 603.302 1967.16 599.58C1967.16 595.858 1964.14 592.84 1960.42 592.84C1956.7 592.84 1953.68 595.858 1953.68 599.58C1953.68 603.302 1956.7 606.32 1960.42 606.32Z" fill="white"/>
<path d="M1839.16 606.32C1842.88 606.32 1845.9 603.302 1845.9 599.58C1845.9 595.858 1842.88 592.84 1839.16 592.84C1835.44 592.84 1832.42 595.858 1832.42 599.58C1832.42 603.302 1835.44 606.32 1839.16 606.32Z" fill="white"/>
<path d="M1920 606.32C1923.72 606.32 1926.74 603.302 1926.74 599.58C1926.74 595.858 1923.72 592.84 1920 592.84C1916.28 592.84 1913.26 595.858 1913.26 599.58C1913.26 603.302 1916.28 606.32 1920 606.32Z" fill="white"/>
<path d="M2000.84 606.32C2004.56 606.32 2007.58 603.302 2007.58 599.58C2007.58 595.858 2004.56 592.84 2000.84 592.84C1997.12 592.84 1994.1 595.858 1994.1 599.58C1994.1 603.302 1997.12 606.32 2000.84 606.32Z" fill="white"/>
<path d="M2041.26 606.32C2044.98 606.32 2048 603.302 2048 599.58C2048 595.858 2044.98 592.84 2041.26 592.84C2037.54 592.84 2034.52 595.858 2034.52 599.58C2034.52 603.302 2037.54 606.32 2041.26 606.32Z" fill="white"/>
<path d="M1798.74 687.16C1802.46 687.16 1805.48 684.142 1805.48 680.42C1805.48 676.698 1802.46 673.68 1798.74 673.68C1795.02 673.68 1792 676.698 1792 680.42C1792 684.142 1795.02 687.16 1798.74 687.16Z" fill="white"/>
<path d="M1879.58 687.16C1883.3 687.16 1886.32 684.142 1886.32 680.42C1886.32 676.698 1883.3 673.68 1879.58 673.68C1875.86 673.68 1872.84 676.698 1872.84 680.42C1872.84 684.142 1875.86 687.16 1879.58 687.16Z" fill="white"/>
<path d="M1960.42 687.16C1964.14 687.16 1967.16 684.142 1967.16 680.42C1967.16 676.698 1964.14 673.68 1960.42 673.68C1956.7 673.68 1953.68 676.698 1953.68 680.42C1953.68 684.142 1956.7 687.16 1960.42 687.16Z" fill="white"/>
<path d="M1839.16 687.16C1842.88 687.16 1845.9 684.142 1845.9 680.42C1845.9 676.698 1842.88 673.68 1839.16 673.68C1835.44 673.68 1832.42 676.698 1832.42 680.42C1832.42 684.142 1835.44 687.16 1839.16 687.16Z" fill="white"/>
<path d="M1920 687.16C1923.72 687.16 1926.74 684.142 1926.74 680.42C1926.74 676.698 1923.72 673.68 1920 673.68C1916.28 673.68 1913.26 676.698 1913.26 680.42C1913.26 684.142 1916.28 687.16 1920 687.16Z" fill="white"/>
<path d="M2000.84 687.16C2004.56 687.16 2007.58 684.142 2007.58 680.42C2007.58 676.698 2004.56 673.68 2000.84 673.68C1997.12 673.68 1994.1 676.698 1994.1 680.42C1994.1 684.142 1997.12 687.16 2000.84 687.16Z" fill="white"/>
<path d="M2041.26 687.16C2044.98 687.16 2048 684.142 2048 680.42C2048 676.698 2044.98 673.68 2041.26 673.68C2037.54 673.68 2034.52 676.698 2034.52 680.42C2034.52 684.142 2037.54 687.16 2041.26 687.16Z" fill="white"/>
<path d="M1798.74 565.9C1802.46 565.9 1805.48 562.882 1805.48 559.16C1805.48 555.438 1802.46 552.42 1798.74 552.42C1795.02 552.42 1792 555.438 1792 559.16C1792 562.882 1795.02 565.9 1798.74 565.9Z" fill="white"/>
<path d="M1879.58 565.9C1883.3 565.9 1886.32 562.882 1886.32 559.16C1886.32 555.438 1883.3 552.42 1879.58 552.42C1875.86 552.42 1872.84 555.438 1872.84 559.16C1872.84 562.882 1875.86 565.9 1879.58 565.9Z" fill="white"/>
<path d="M1960.42 565.9C1964.14 565.9 1967.16 562.882 1967.16 559.16C1967.16 555.438 1964.14 552.42 1960.42 552.42C1956.7 552.42 1953.68 555.438 1953.68 559.16C1953.68 562.882 1956.7 565.9 1960.42 565.9Z" fill="white"/>
<path d="M1839.16 565.9C1842.88 565.9 1845.9 562.882 1845.9 559.16C1845.9 555.438 1842.88 552.42 1839.16 552.42C1835.44 552.42 1832.42 555.438 1832.42 559.16C1832.42 562.882 1835.44 565.9 1839.16 565.9Z" fill="white"/>
<path d="M1920 565.9C1923.72 565.9 1926.74 562.882 1926.74 559.16C1926.74 555.438 1923.72 552.42 1920 552.42C1916.28 552.42 1913.26 555.438 1913.26 559.16C1913.26 562.882 1916.28 565.9 1920 565.9Z" fill="white"/>
<path d="M2000.84 565.9C2004.56 565.9 2007.58 562.882 2007.58 559.16C2007.58 555.438 2004.56 552.42 2000.84 552.42C1997.12 552.42 1994.1 555.438 1994.1 559.16C1994.1 562.882 1997.12 565.9 2000.84 565.9Z" fill="white"/>
<path d="M2041.26 565.9C2044.98 565.9 2048 562.882 2048 559.16C2048 555.438 2044.98 552.42 2041.26 552.42C2037.54 552.42 2034.52 555.438 2034.52 559.16C2034.52 562.882 2037.54 565.9 2041.26 565.9Z" fill="white"/>
<path d="M1798.74 646.74C1802.46 646.74 1805.48 643.722 1805.48 640C1805.48 636.278 1802.46 633.26 1798.74 633.26C1795.02 633.26 1792 636.278 1792 640C1792 643.722 1795.02 646.74 1798.74 646.74Z" fill="white"/>
<path d="M1879.58 646.74C1883.3 646.74 1886.32 643.722 1886.32 640C1886.32 636.278 1883.3 633.26 1879.58 633.26C1875.86 633.26 1872.84 636.278 1872.84 640C1872.84 643.722 1875.86 646.74 1879.58 646.74Z" fill="white"/>
<path d="M1960.42 646.74C1964.14 646.74 1967.16 643.722 1967.16 640C1967.16 636.278 1964.14 633.26 1960.42 633.26C1956.7 633.26 1953.68 636.278 1953.68 640C1953.68 643.722 1956.7 646.74 1960.42 646.74Z" fill="white"/>
<path d="M1839.16 646.74C1842.88 646.74 1845.9 643.722 1845.9 640C1845.9 636.278 1842.88 633.26 1839.16 633.26C1835.44 633.26 1832.42 636.278 1832.42 640C1832.42 643.722 1835.44 646.74 1839.16 646.74Z" fill="white"/>
<path d="M1920 646.74C1923.72 646.74 1926.74 643.722 1926.74 640C1926.74 636.278 1923.72 633.26 1920 633.26C1916.28 633.26 1913.26 636.278 1913.26 640C1913.26 643.722 1916.28 646.74 1920 646.74Z" fill="white"/>
<path d="M2000.84 646.74C2004.56 646.74 2007.58 643.722 2007.58 640C2007.58 636.278 2004.56 633.26 2000.84 633.26C1997.12 633.26 1994.1 636.278 1994.1 640C1994.1 643.722 1997.12 646.74 2000.84 646.74Z" fill="white"/>
<path d="M2041.26 646.74C2044.98 646.74 2048 643.722 2048 640C2048 636.278 2044.98 633.26 2041.26 633.26C2037.54 633.26 2034.52 636.278 2034.52 640C2034.52 643.722 2037.54 646.74 2041.26 646.74Z" fill="white"/>
<path d="M1798.74 727.58C1802.46 727.58 1805.48 724.562 1805.48 720.84C1805.48 717.118 1802.46 714.1 1798.74 714.1C1795.02 714.1 1792 717.118 1792 720.84C1792 724.562 1795.02 727.58 1798.74 727.58Z" fill="white"/>
<path d="M1798.74 768C1802.46 768 1805.48 764.982 1805.48 761.26C1805.48 757.538 1802.46 754.52 1798.74 754.52C1795.02 754.52 1792 757.538 1792 761.26C1792 764.982 1795.02 768 1798.74 768Z" fill="white"/>
<path d="M1879.58 727.58C1883.3 727.58 1886.32 724.562 1886.32 720.84C1886.32 717.118 1883.3 714.1 1879.58 714.1C1875.86 714.1 1872.84 717.118 1872.84 720.84C1872.84 724.562 1875.86 727.58 1879.58 727.58Z" fill="white"/>
<path d="M1879.58 768C1883.3 768 1886.32 764.982 1886.32 761.26C1886.32 757.538 1883.3 754.52 1879.58 754.52C1875.86 754.52 1872.84 757.538 1872.84 761.26C1872.84 764.982 1875.86 768 1879.58 768Z" fill="white"/>
<path d="M1960.42 727.58C1964.14 727.58 1967.16 724.562 1967.16 720.84C1967.16 717.118 1964.14 714.1 1960.42 714.1C1956.7 714.1 1953.68 717.118 1953.68 720.84C1953.68 724.562 1956.7 727.58 1960.42 727.58Z" fill="white"/>
<path d="M1960.42 768C1964.14 768 1967.16 764.982 1967.16 761.26C1967.16 757.538 1964.14 754.52 1960.42 754.52C1956.7 754.52 1953.68 757.538 1953.68 761.26C1953.68 764.982 1956.7 768 1960.42 768Z" fill="white"/>
<path d="M1839.16 727.58C1842.88 727.58 1845.9 724.562 1845.9 720.84C1845.9 717.118 1842.88 714.1 1839.16 714.1C1835.44 714.1 1832.42 717.118 1832.42 720.84C1832.42 724.562 1835.44 727.58 1839.16 727.58Z" fill="white"/>
<path d="M1839.16 768C1842.88 768 1845.9 764.982 1845.9 761.26C1845.9 757.538 1842.88 754.52 1839.16 754.52C1835.44 754.52 1832.42 757.538 1832.42 761.26C1832.42 764.982 1835.44 768 1839.16 768Z" fill="white"/>
<path d="M1920 727.58C1923.72 727.58 1926.74 724.562 1926.74 720.84C1926.74 717.118 1923.72 714.1 1920 714.1C1916.28 714.1 1913.26 717.118 1913.26 720.84C1913.26 724.562 1916.28 727.58 1920 727.58Z" fill="white"/>
<path d="M1920 768C1923.72 768 1926.74 764.982 1926.74 761.26C1926.74 757.538 1923.72 754.52 1920 754.52C1916.28 754.52 1913.26 757.538 1913.26 761.26C1913.26 764.982 1916.28 768 1920 768Z" fill="white"/>
<path d="M2000.84 727.58C2004.56 727.58 2007.58 724.562 2007.58 720.84C2007.58 717.118 2004.56 714.1 2000.84 714.1C1997.12 714.1 1994.1 717.118 1994.1 720.84C1994.1 724.562 1997.12 727.58 2000.84 727.58Z" fill="white"/>
<path d="M2041.26 727.58C2044.98 727.58 2048 724.562 2048 720.84C2048 717.118 2044.98 714.1 2041.26 714.1C2037.54 714.1 2034.52 717.118 2034.52 720.84C2034.52 724.562 2037.54 727.58 2041.26 727.58Z" fill="white"/>
<path d="M2000.84 768C2004.56 768 2007.58 764.982 2007.58 761.26C2007.58 757.538 2004.56 754.52 2000.84 754.52C1997.12 754.52 1994.1 757.538 1994.1 761.26C1994.1 764.982 1997.12 768 2000.84 768Z" fill="white"/>
<path d="M2041.26 768C2044.98 768 2048 764.982 2048 761.26C2048 757.538 2044.98 754.52 2041.26 754.52C2037.54 754.52 2034.52 757.538 2034.52 761.26C2034.52 764.982 2037.54 768 2041.26 768Z" fill="white"/>
<path d="M255.974 985.403L38.5713 768L-0.000165428 806.571L217.402 1023.97L255.974 985.403Z" fill="#4F4F4F"/>
<path d="M38.5975 1023.98L256 806.574L217.429 768.003L0.0260441 985.405L38.5975 1023.98Z" fill="#4F4F4F"/>
<path d="M511.989 985.414L294.575 768L256.001 806.574L473.415 1023.99L511.989 985.414Z" fill="white"/>
<path d="M294.574 1024L511.988 806.586L473.414 768.012L256 985.426L294.574 1024Z" fill="white"/>
<path d="M661.56 896L562 796.44L590.44 768L718.44 896L590.44 1024L562 995.56L661.56 896Z" fill="black"/>
</g>
<defs>
<clipPath id="clip0">
<rect width="2048" height="2048" fill="white"/>
</clipPath>
<clipPath id="clip1">
<rect width="119" height="28" fill="white" transform="translate(837 626)"/>
</clipPath>
<clipPath id="clip2">
<rect width="119" height="28" fill="white" transform="translate(1093 626)"/>
</clipPath>
</defs>
</svg>
