<svg width="256" height="256" viewBox="0 0 256 256" fill="none" xmlns="http://www.w3.org/2000/svg">
<path d="M128 89.6C117.816 89.6 108.048 93.6457 100.847 100.847C93.6457 108.048 89.6 117.816 89.6 128C89.6 138.184 93.6457 147.952 100.847 155.153C108.048 162.354 117.816 166.4 128 166.4C138.184 166.4 147.952 162.354 155.153 155.153C162.354 147.952 166.4 138.184 166.4 128C166.4 117.816 162.354 108.048 155.153 100.847C147.952 93.6457 138.184 89.6 128 89.6ZM128 64C144.974 64 161.253 70.7428 173.255 82.7452C185.257 94.7475 192 111.026 192 128C192 144.974 185.257 161.253 173.255 173.255C161.253 185.257 144.974 192 128 192C111.026 192 94.7475 185.257 82.7452 173.255C70.7428 161.253 64 144.974 64 128C64 111.026 70.7428 94.7475 82.7452 82.7452C94.7475 70.7428 111.026 64 128 64V64ZM211.2 60.8C211.2 65.0435 209.514 69.1131 206.514 72.1137C203.513 75.1143 199.443 76.8 195.2 76.8C190.957 76.8 186.887 75.1143 183.886 72.1137C180.886 69.1131 179.2 65.0435 179.2 60.8C179.2 56.5565 180.886 52.4869 183.886 49.4863C186.887 46.4857 190.957 44.8 195.2 44.8C199.443 44.8 203.513 46.4857 206.514 49.4863C209.514 52.4869 211.2 56.5565 211.2 60.8V60.8ZM128 25.6C96.3328 25.6 91.1616 25.6896 76.4288 26.3424C66.3936 26.816 59.6608 28.16 53.4144 30.592C47.8592 32.7424 43.8528 35.3152 39.5904 39.5904C35.5841 43.4611 32.5037 48.1867 30.5792 53.4144C28.1472 59.6864 26.8032 66.4064 26.3424 76.4288C25.6768 90.56 25.6 95.5008 25.6 128C25.6 159.667 25.6896 164.838 26.3424 179.571C26.816 189.594 28.16 196.339 30.5792 202.573C32.7552 208.141 35.3152 212.147 39.5648 216.397C43.8784 220.698 47.8848 223.27 53.3888 225.395C59.712 227.84 66.4448 229.197 76.4288 229.658C90.56 230.323 95.5008 230.4 128 230.4C159.667 230.4 164.838 230.31 179.571 229.658C189.581 229.184 196.326 227.84 202.573 225.421C208.115 223.258 212.147 220.685 216.397 216.435C220.71 212.122 223.283 208.115 225.408 202.611C227.84 196.301 229.197 189.555 229.658 179.571C230.323 165.44 230.4 160.499 230.4 128C230.4 96.3328 230.31 91.1616 229.658 76.4288C229.184 66.4192 227.84 59.6608 225.408 53.4144C223.479 48.192 220.404 43.4683 216.41 39.5904C212.541 35.582 207.815 32.5013 202.586 30.5792C196.314 28.1472 189.581 26.8032 179.571 26.3424C165.44 25.6768 160.499 25.6 128 25.6ZM128 0C162.778 0 167.117 0.127999 180.762 0.767999C194.394 1.408 203.674 3.5456 211.84 6.72C220.288 9.9712 227.405 14.3744 234.522 21.4784C241.03 27.8771 246.067 35.6171 249.28 44.16C252.442 52.3136 254.592 61.6064 255.232 75.2384C255.834 88.8832 256 93.2224 256 128C256 162.778 255.872 167.117 255.232 180.762C254.592 194.394 252.442 203.674 249.28 211.84C246.076 220.388 241.038 228.13 234.522 234.522C228.121 241.028 220.382 246.064 211.84 249.28C203.686 252.442 194.394 254.592 180.762 255.232C167.117 255.834 162.778 256 128 256C93.2224 256 88.8832 255.872 75.2384 255.232C61.6064 254.592 52.3264 252.442 44.16 249.28C35.6138 246.073 27.8723 241.036 21.4784 234.522C14.9684 228.124 9.93192 220.384 6.72 211.84C3.5456 203.686 1.408 194.394 0.767999 180.762C0.166399 167.117 0 162.778 0 128C0 93.2224 0.127999 88.8832 0.767999 75.2384C1.408 61.5936 3.5456 52.3264 6.72 44.16C9.92302 35.6119 14.9607 27.8697 21.4784 21.4784C27.8742 14.9662 35.6151 9.92934 44.16 6.72C52.3264 3.5456 61.5936 1.408 75.2384 0.767999C88.8832 0.166399 93.2224 0 128 0Z" fill="#7E31FD"/>
</svg>
