<svg width="282" height="271" viewBox="0 0 282 271" fill="none" xmlns="http://www.w3.org/2000/svg">
<path d="M185.516 83.624L230.469 38.6814M256.156 13L230.469 38.6814L256.156 13ZM132.728 136.399C139.36 142.941 144.632 150.73 148.24 159.317C151.849 167.905 153.722 177.121 153.754 186.435C153.785 195.749 151.973 204.978 148.422 213.589C144.871 222.2 139.652 230.024 133.064 236.61C126.476 243.196 118.65 248.415 110.037 251.965C101.424 255.515 92.1933 257.326 82.8769 257.295C73.5605 257.264 64.3422 255.391 55.753 251.783C47.1637 248.175 39.3731 242.905 32.8296 236.274C19.9619 222.955 12.8417 205.115 13.0027 186.597C13.1636 168.08 20.5928 150.367 33.6901 137.272C46.7874 124.178 64.505 116.751 83.0267 116.59C101.548 116.429 119.392 123.547 132.715 136.412L132.728 136.399ZM132.728 136.399L185.516 83.624L132.728 136.399ZM185.516 83.624L224.047 122.146L269 77.2036L230.469 38.6814L185.516 83.624Z" stroke="black" stroke-width="25.6814" stroke-linecap="round" stroke-linejoin="round"/>
</svg>
