<svg width="256" height="256" viewBox="0 0 256 256" fill="none" xmlns="http://www.w3.org/2000/svg">
<path d="M128 0C57.4165 0 0 57.422 0 128C0 198.578 57.4165 256 128 256C198.584 256 256 198.578 256 128C256 57.422 198.584 0 128 0ZM128 245.333C63.302 245.333 10.6665 192.698 10.6665 128C10.6665 63.302 63.302 10.6665 128 10.6665C192.698 10.6665 245.333 63.302 245.333 128C245.333 192.698 192.698 245.333 128 245.333Z" fill="white"/>
<path d="M178.887 123.516L104.221 75.5155C102.585 74.448 100.471 74.3905 98.7832 75.3175C97.0642 76.255 96.0017 78.047 96.0017 80V176C96.0017 177.953 97.0642 179.745 98.7832 180.683C99.5747 181.115 100.46 181.334 101.335 181.334C102.335 181.334 103.346 181.052 104.221 180.485L178.887 132.485C180.408 131.506 181.335 129.813 181.335 128C181.335 126.188 180.408 124.495 178.887 123.516ZM106.668 166.229V89.771L166.137 128L106.668 166.229Z" fill="white"/>
</svg>
