<svg width="266" height="266" viewBox="0 0 266 266" fill="none" xmlns="http://www.w3.org/2000/svg">
<circle cx="133" cy="133" r="128" fill="#C4C4C4" fill-opacity="0.5"/>
<path d="M133 5C62.4165 5 5 62.422 5 133C5 203.578 62.4165 261 133 261C203.584 261 261 203.578 261 133C261 62.422 203.584 5 133 5ZM133 250.333C68.302 250.333 15.6665 197.698 15.6665 133C15.6665 68.302 68.302 15.6665 133 15.6665C197.698 15.6665 250.333 68.302 250.333 133C250.333 197.698 197.698 250.333 133 250.333Z" fill="white" stroke="white" stroke-width="10"/>
<path d="M183.887 128.516L109.221 80.5155C107.585 79.448 105.471 79.3905 103.783 80.3175C102.064 81.255 101.002 83.047 101.002 85V181C101.002 182.953 102.064 184.745 103.783 185.683C104.575 186.115 105.46 186.334 106.335 186.334C107.335 186.334 108.346 186.052 109.221 185.485L183.887 137.485C185.408 136.506 186.335 134.813 186.335 133C186.335 131.188 185.408 129.495 183.887 128.516ZM111.668 171.229V94.771L171.137 133L111.668 171.229Z" fill="white" stroke="white" stroke-width="5"/>
</svg>
