<svg xmlns="http://www.w3.org/2000/svg" viewBox="0 0 256 256"><defs><style>.a{fill:#fff;}</style></defs><title>point7x7-white</title><circle class="a" cx="6.74" cy="6.74" r="6.74"/><circle class="a" cx="87.58" cy="6.74" r="6.74"/><circle class="a" cx="168.42" cy="6.74" r="6.74"/><circle class="a" cx="47.16" cy="6.74" r="6.74"/><circle class="a" cx="128" cy="6.74" r="6.74"/><circle class="a" cx="208.84" cy="6.74" r="6.74"/><circle class="a" cx="249.26" cy="6.74" r="6.74"/><circle class="a" cx="6.74" cy="87.58" r="6.74"/><circle class="a" cx="87.58" cy="87.58" r="6.74"/><circle class="a" cx="168.42" cy="87.58" r="6.74"/><circle class="a" cx="47.16" cy="87.58" r="6.74"/><circle class="a" cx="128" cy="87.58" r="6.74"/><circle class="a" cx="208.84" cy="87.58" r="6.74"/><circle class="a" cx="249.26" cy="87.58" r="6.74"/><circle class="a" cx="6.74" cy="168.42" r="6.74"/><circle class="a" cx="87.58" cy="168.42" r="6.74"/><circle class="a" cx="168.42" cy="168.42" r="6.74"/><circle class="a" cx="47.16" cy="168.42" r="6.74"/><circle class="a" cx="128" cy="168.42" r="6.74"/><circle class="a" cx="208.84" cy="168.42" r="6.74"/><circle class="a" cx="249.26" cy="168.42" r="6.74"/><circle class="a" cx="6.74" cy="47.16" r="6.74"/><circle class="a" cx="87.58" cy="47.16" r="6.74"/><circle class="a" cx="168.42" cy="47.16" r="6.74"/><circle class="a" cx="47.16" cy="47.16" r="6.74"/><circle class="a" cx="128" cy="47.16" r="6.74"/><circle class="a" cx="208.84" cy="47.16" r="6.74"/><circle class="a" cx="249.26" cy="47.16" r="6.74"/><circle class="a" cx="6.74" cy="128" r="6.74"/><circle class="a" cx="87.58" cy="128" r="6.74"/><circle class="a" cx="168.42" cy="128" r="6.74"/><circle class="a" cx="47.16" cy="128" r="6.74"/><circle class="a" cx="128" cy="128" r="6.74"/><circle class="a" cx="208.84" cy="128" r="6.74"/><circle class="a" cx="249.26" cy="128" r="6.74"/><circle class="a" cx="6.74" cy="208.84" r="6.74"/><circle class="a" cx="6.74" cy="249.26" r="6.74"/><circle class="a" cx="87.58" cy="208.84" r="6.74"/><circle class="a" cx="87.58" cy="249.26" r="6.74"/><circle class="a" cx="168.42" cy="208.84" r="6.74"/><circle class="a" cx="168.42" cy="249.26" r="6.74"/><circle class="a" cx="47.16" cy="208.84" r="6.74"/><circle class="a" cx="47.16" cy="249.26" r="6.74"/><circle class="a" cx="128" cy="208.84" r="6.74"/><circle class="a" cx="128" cy="249.26" r="6.74"/><circle class="a" cx="208.84" cy="208.84" r="6.74"/><circle class="a" cx="249.26" cy="208.84" r="6.74"/><circle class="a" cx="208.84" cy="249.26" r="6.74"/><circle class="a" cx="249.26" cy="249.26" r="6.74"/></svg>