<svg width="256" height="245" viewBox="0 0 256 245" fill="none" xmlns="http://www.w3.org/2000/svg">
<path d="M255.571 92.4708C254.763 90.1327 253.295 88.079 251.344 86.5588C249.393 85.0387 247.042 84.1173 244.578 83.9064L171.845 73.2969L139.249 7.2108C138.202 5.04963 136.568 3.22699 134.533 1.95169C132.499 0.676391 130.146 0 127.745 0C125.343 0 122.991 0.676391 120.956 1.95169C118.921 3.22699 117.287 5.04963 116.24 7.2108L83.6446 73.169L10.9116 83.9064C8.54584 84.2427 6.32169 85.2353 4.49155 86.7717C2.66142 88.3082 1.29858 90.3268 0.557702 92.5986C-0.120479 94.8186 -0.181338 97.1814 0.381657 99.4334C0.944652 101.685 2.11025 103.742 3.75335 105.381L56.5455 156.512L43.7629 229.117C43.2468 231.525 43.4376 234.032 44.3124 236.334C45.1871 238.637 46.7085 240.638 48.6935 242.096C50.6786 243.555 53.0427 244.408 55.5015 244.555C57.9604 244.701 60.4092 244.134 62.5533 242.922L127.745 208.792L192.936 242.922C194.73 243.934 196.756 244.463 198.816 244.456C201.524 244.466 204.164 243.615 206.358 242.027C208.341 240.607 209.876 238.648 210.782 236.383C211.688 234.118 211.927 231.641 211.471 229.245L198.688 156.639L251.48 105.509C253.326 103.945 254.69 101.89 255.414 99.5824C256.138 97.2744 256.192 94.8084 255.571 92.4708ZM176.958 143.601C175.478 145.038 174.368 146.812 173.723 148.77C173.077 150.729 172.915 152.815 173.251 154.85L182.454 208.537L134.392 182.972C132.524 182.048 130.468 181.567 128.384 181.567C126.3 181.567 124.244 182.048 122.376 182.972L74.3133 208.537L83.5168 154.85C83.8522 152.815 83.6902 150.729 83.0447 148.77C82.3992 146.812 81.2893 145.038 79.8098 143.601L41.462 105.253L95.2768 97.456C97.3476 97.1679 99.3161 96.3764 101.01 95.1507C102.703 93.9249 104.071 92.3025 104.992 90.4256L127.745 41.7238L151.776 90.5534C152.697 92.4304 154.064 94.0528 155.758 95.2785C157.451 96.5042 159.42 97.2958 161.491 97.5838L215.305 105.381L176.958 143.601Z" fill="#FFC900"/>
<path d="M176.958 143.601C175.478 145.038 174.368 146.812 173.723 148.77C173.077 150.729 172.915 152.815 173.251 154.85L182.454 208.537L134.392 182.972C132.524 182.048 130.468 181.567 128.384 181.567C126.3 181.567 124.244 182.048 122.376 182.972L74.3133 208.537L83.5168 154.85C83.8522 152.815 83.6902 150.729 83.0447 148.77C82.3992 146.812 81.2893 145.038 79.8098 143.601L41.462 105.253L95.2768 97.456C97.3476 97.1679 99.3161 96.3764 101.01 95.1507C102.703 93.9249 104.071 92.3025 104.992 90.4256L127.745 41.7238L151.776 90.5534C152.697 92.4304 154.064 94.0528 155.758 95.2785C157.451 96.5042 159.42 97.2958 161.491 97.5838L215.305 105.381L176.958 143.601Z" fill="#FFC900"/>
</svg>
