<svg width="1921" height="1081" viewBox="0 0 1921 1081" fill="none" xmlns="http://www.w3.org/2000/svg">
<g clip-path="url(#clip0)">
<rect width="1920" height="1080" transform="translate(0.496582 0.665039)" fill="url(#paint0_linear)"/>
<g clip-path="url(#clip1)">
<path d="M340.846 238.701L361.543 218.119L379.894 236.573L397.921 218.617L416.498 237.297L436.371 217.534L454.948 236.243" stroke="#FFF8DC" stroke-width="5.66226" stroke-miterlimit="10"/>
</g>
<g clip-path="url(#clip2)">
<path d="M340.913 214.701L361.609 194.12L379.96 212.573L397.988 194.617L416.565 213.298L436.438 193.535L455.015 212.244" stroke="#E95584" stroke-width="5.66226" stroke-miterlimit="10"/>
</g>
<circle cx="1418.21" cy="825.273" r="3" transform="rotate(0.159173 1418.21 825.273)" fill="white"/>
<circle cx="1454.21" cy="825.373" r="3" transform="rotate(0.159173 1454.21 825.373)" fill="white"/>
<circle cx="1490.21" cy="825.473" r="3" transform="rotate(0.159173 1490.21 825.473)" fill="white"/>
<circle cx="1436.21" cy="825.323" r="3" transform="rotate(0.159173 1436.21 825.323)" fill="white"/>
<circle cx="1472.21" cy="825.423" r="3" transform="rotate(0.159173 1472.21 825.423)" fill="white"/>
<circle cx="1508.21" cy="825.523" r="3" transform="rotate(0.159173 1508.21 825.523)" fill="white"/>
<circle cx="1526.21" cy="825.573" r="3" transform="rotate(0.159173 1526.21 825.573)" fill="white"/>
<circle cx="1418.11" cy="861.272" r="3" transform="rotate(0.159173 1418.11 861.272)" fill="white"/>
<circle cx="1454.11" cy="861.373" r="3" transform="rotate(0.159173 1454.11 861.373)" fill="white"/>
<circle cx="1490.11" cy="861.473" r="3" transform="rotate(0.159173 1490.11 861.473)" fill="white"/>
<circle cx="1436.11" cy="861.323" r="3" transform="rotate(0.159173 1436.11 861.323)" fill="white"/>
<circle cx="1472.11" cy="861.423" r="3" transform="rotate(0.159173 1472.11 861.423)" fill="white"/>
<circle cx="1508.11" cy="861.523" r="3" transform="rotate(0.159173 1508.11 861.523)" fill="white"/>
<circle cx="1526.11" cy="861.573" r="3" transform="rotate(0.159173 1526.11 861.573)" fill="white"/>
<circle cx="1418.01" cy="897.272" r="3" transform="rotate(0.159173 1418.01 897.272)" fill="white"/>
<circle cx="1454.01" cy="897.373" r="3" transform="rotate(0.159173 1454.01 897.373)" fill="white"/>
<circle cx="1490.01" cy="897.472" r="3" transform="rotate(0.159173 1490.01 897.472)" fill="white"/>
<circle cx="1436.01" cy="897.323" r="3" transform="rotate(0.159173 1436.01 897.323)" fill="white"/>
<circle cx="1472.01" cy="897.422" r="3" transform="rotate(0.159173 1472.01 897.422)" fill="white"/>
<circle cx="1508.01" cy="897.522" r="3" transform="rotate(0.159173 1508.01 897.522)" fill="white"/>
<circle cx="1526.01" cy="897.573" r="3" transform="rotate(0.159173 1526.01 897.573)" fill="white"/>
<circle cx="1418.16" cy="843.273" r="3" transform="rotate(0.159173 1418.16 843.273)" fill="white"/>
<circle cx="1454.16" cy="843.373" r="3" transform="rotate(0.159173 1454.16 843.373)" fill="white"/>
<circle cx="1490.16" cy="843.473" r="3" transform="rotate(0.159173 1490.16 843.473)" fill="white"/>
<circle cx="1436.16" cy="843.323" r="3" transform="rotate(0.159173 1436.16 843.323)" fill="white"/>
<circle cx="1472.16" cy="843.423" r="3" transform="rotate(0.159173 1472.16 843.423)" fill="white"/>
<circle cx="1508.16" cy="843.523" r="3" transform="rotate(0.159173 1508.16 843.523)" fill="white"/>
<circle cx="1526.16" cy="843.573" r="3" transform="rotate(0.159173 1526.16 843.573)" fill="white"/>
<circle cx="1418.06" cy="879.272" r="3" transform="rotate(0.159173 1418.06 879.272)" fill="white"/>
<circle cx="1454.06" cy="879.373" r="3" transform="rotate(0.159173 1454.06 879.373)" fill="white"/>
<circle cx="1490.06" cy="879.472" r="3" transform="rotate(0.159173 1490.06 879.472)" fill="white"/>
<circle cx="1436.06" cy="879.323" r="3" transform="rotate(0.159173 1436.06 879.323)" fill="white"/>
<circle cx="1472.06" cy="879.423" r="3" transform="rotate(0.159173 1472.06 879.423)" fill="white"/>
<circle cx="1508.06" cy="879.522" r="3" transform="rotate(0.159173 1508.06 879.522)" fill="white"/>
<circle cx="1526.06" cy="879.573" r="3" transform="rotate(0.159173 1526.06 879.573)" fill="white"/>
<circle cx="1417.96" cy="915.272" r="3" transform="rotate(0.159173 1417.96 915.272)" fill="white"/>
<circle cx="1417.91" cy="933.272" r="3" transform="rotate(0.159173 1417.91 933.272)" fill="white"/>
<circle cx="1453.96" cy="915.372" r="3" transform="rotate(0.159173 1453.96 915.372)" fill="white"/>
<circle cx="1453.91" cy="933.372" r="3" transform="rotate(0.159173 1453.91 933.372)" fill="white"/>
<circle cx="1489.96" cy="915.472" r="3" transform="rotate(0.159173 1489.96 915.472)" fill="white"/>
<circle cx="1489.91" cy="933.472" r="3" transform="rotate(0.159173 1489.91 933.472)" fill="white"/>
<circle cx="1435.96" cy="915.322" r="3" transform="rotate(0.159173 1435.96 915.322)" fill="white"/>
<circle cx="1435.91" cy="933.322" r="3" transform="rotate(0.159173 1435.91 933.322)" fill="white"/>
<circle cx="1471.96" cy="915.422" r="3" transform="rotate(0.159173 1471.96 915.422)" fill="white"/>
<circle cx="1471.91" cy="933.422" r="3" transform="rotate(0.159173 1471.91 933.422)" fill="white"/>
<circle cx="1507.96" cy="915.522" r="3" transform="rotate(0.159173 1507.96 915.522)" fill="white"/>
<circle cx="1525.96" cy="915.573" r="3" transform="rotate(0.159173 1525.96 915.573)" fill="white"/>
<circle cx="1507.91" cy="933.522" r="3" transform="rotate(0.159173 1507.91 933.522)" fill="white"/>
<circle cx="1525.91" cy="933.572" r="3" transform="rotate(0.159173 1525.91 933.572)" fill="white"/>
<path d="M105.672 657.626C105.633 671.677 102.826 685.583 97.413 698.55C91.9997 711.517 84.0854 723.291 74.122 733.199C64.1586 743.107 52.3411 750.956 39.3444 756.297C26.3477 761.638 12.4262 764.367 -1.6252 764.328L-1.32794 657.329L105.672 657.626Z" fill="white"/>
<rect x="1695.01" y="177.909" width="26.4276" height="4.68877" transform="rotate(0.159173 1695.01 177.909)" fill="white"/>
<rect x="1710.6" y="167.083" width="26.4276" height="4.68877" transform="rotate(90.1592 1710.6 167.083)" fill="white"/>
<rect x="239.877" y="943.869" width="26.4276" height="4.68877" transform="rotate(0.159173 239.877 943.869)" fill="white"/>
<rect x="255.466" y="933.043" width="26.4276" height="4.68877" transform="rotate(90.1592 255.466 933.043)" fill="white"/>
<rect x="152.667" y="299.624" width="26.4276" height="4.68877" transform="rotate(0.159173 152.667 299.624)" fill="white"/>
<rect x="168.255" y="288.798" width="26.4276" height="4.68877" transform="rotate(90.1592 168.255 288.798)" fill="white"/>
<rect x="393.609" y="114.772" width="43.5724" height="7.73058" transform="rotate(0.159173 393.609 114.772)" fill="white"/>
<rect x="419.311" y="96.9226" width="43.5724" height="7.73058" transform="rotate(90.1592 419.311 96.9226)" fill="white"/>
<rect x="1646.55" y="1064.3" width="49.5725" height="8.79512" transform="rotate(0.159173 1646.55 1064.3)" fill="white"/>
<rect x="1675.79" y="1043.99" width="49.5725" height="8.79512" transform="rotate(90.1592 1675.79 1043.99)" fill="white"/>
<rect x="1720.68" y="504.586" width="82.4275" height="14.6242" transform="rotate(0.159173 1720.68 504.586)" fill="white"/>
<rect x="1769.3" y="470.819" width="82.4275" height="14.6242" transform="rotate(90.1592 1769.3 470.819)" fill="white"/>
<circle cx="307.396" cy="397.185" r="3" transform="rotate(0.159173 307.396 397.185)" fill="white"/>
<circle cx="343.396" cy="397.285" r="3" transform="rotate(0.159173 343.396 397.285)" fill="white"/>
<circle cx="379.396" cy="397.385" r="3" transform="rotate(0.159173 379.396 397.385)" fill="white"/>
<circle cx="325.396" cy="397.235" r="3" transform="rotate(0.159173 325.396 397.235)" fill="white"/>
<circle cx="361.396" cy="397.335" r="3" transform="rotate(0.159173 361.396 397.335)" fill="white"/>
<circle cx="397.396" cy="397.435" r="3" transform="rotate(0.159173 397.396 397.435)" fill="white"/>
<circle cx="415.396" cy="397.485" r="3" transform="rotate(0.159173 415.396 397.485)" fill="white"/>
<circle cx="307.296" cy="433.185" r="3" transform="rotate(0.159173 307.296 433.185)" fill="white"/>
<circle cx="343.296" cy="433.285" r="3" transform="rotate(0.159173 343.296 433.285)" fill="white"/>
<circle cx="379.296" cy="433.385" r="3" transform="rotate(0.159173 379.296 433.385)" fill="white"/>
<circle cx="325.296" cy="433.235" r="3" transform="rotate(0.159173 325.296 433.235)" fill="white"/>
<circle cx="361.296" cy="433.335" r="3" transform="rotate(0.159173 361.296 433.335)" fill="white"/>
<circle cx="397.296" cy="433.435" r="3" transform="rotate(0.159173 397.296 433.435)" fill="white"/>
<circle cx="415.296" cy="433.485" r="3" transform="rotate(0.159173 415.296 433.485)" fill="white"/>
<circle cx="307.196" cy="469.185" r="3" transform="rotate(0.159173 307.196 469.185)" fill="white"/>
<circle cx="343.196" cy="469.285" r="3" transform="rotate(0.159173 343.196 469.285)" fill="white"/>
<circle cx="379.196" cy="469.385" r="3" transform="rotate(0.159173 379.196 469.385)" fill="white"/>
<circle cx="325.196" cy="469.235" r="3" transform="rotate(0.159173 325.196 469.235)" fill="white"/>
<circle cx="361.196" cy="469.335" r="3" transform="rotate(0.159173 361.196 469.335)" fill="white"/>
<circle cx="397.196" cy="469.435" r="3" transform="rotate(0.159173 397.196 469.435)" fill="white"/>
<circle cx="415.196" cy="469.485" r="3" transform="rotate(0.159173 415.196 469.485)" fill="white"/>
<circle cx="307.346" cy="415.185" r="3" transform="rotate(0.159173 307.346 415.185)" fill="white"/>
<circle cx="343.346" cy="415.285" r="3" transform="rotate(0.159173 343.346 415.285)" fill="white"/>
<circle cx="379.346" cy="415.385" r="3" transform="rotate(0.159173 379.346 415.385)" fill="white"/>
<circle cx="325.346" cy="415.235" r="3" transform="rotate(0.159173 325.346 415.235)" fill="white"/>
<circle cx="361.346" cy="415.335" r="3" transform="rotate(0.159173 361.346 415.335)" fill="white"/>
<circle cx="397.346" cy="415.435" r="3" transform="rotate(0.159173 397.346 415.435)" fill="white"/>
<circle cx="415.346" cy="415.485" r="3" transform="rotate(0.159173 415.346 415.485)" fill="white"/>
<circle cx="307.246" cy="451.185" r="3" transform="rotate(0.159173 307.246 451.185)" fill="white"/>
<circle cx="343.246" cy="451.285" r="3" transform="rotate(0.159173 343.246 451.285)" fill="white"/>
<circle cx="379.246" cy="451.385" r="3" transform="rotate(0.159173 379.246 451.385)" fill="white"/>
<circle cx="325.246" cy="451.235" r="3" transform="rotate(0.159173 325.246 451.235)" fill="white"/>
<circle cx="361.246" cy="451.335" r="3" transform="rotate(0.159173 361.246 451.335)" fill="white"/>
<circle cx="397.246" cy="451.435" r="3" transform="rotate(0.159173 397.246 451.435)" fill="white"/>
<circle cx="415.246" cy="451.485" r="3" transform="rotate(0.159173 415.246 451.485)" fill="white"/>
<circle cx="307.146" cy="487.185" r="3" transform="rotate(0.159173 307.146 487.185)" fill="white"/>
<circle cx="307.096" cy="505.185" r="3" transform="rotate(0.159173 307.096 505.185)" fill="white"/>
<circle cx="343.146" cy="487.285" r="3" transform="rotate(0.159173 343.146 487.285)" fill="white"/>
<circle cx="343.096" cy="505.285" r="3" transform="rotate(0.159173 343.096 505.285)" fill="white"/>
<circle cx="379.146" cy="487.385" r="3" transform="rotate(0.159173 379.146 487.385)" fill="white"/>
<circle cx="379.096" cy="505.385" r="3" transform="rotate(0.159173 379.096 505.385)" fill="white"/>
<circle cx="325.146" cy="487.235" r="3" transform="rotate(0.159173 325.146 487.235)" fill="white"/>
<circle cx="325.096" cy="505.235" r="3" transform="rotate(0.159173 325.096 505.235)" fill="white"/>
<circle cx="361.146" cy="487.335" r="3" transform="rotate(0.159173 361.146 487.335)" fill="white"/>
<circle cx="361.096" cy="505.335" r="3" transform="rotate(0.159173 361.096 505.335)" fill="white"/>
<circle cx="397.146" cy="487.435" r="3" transform="rotate(0.159173 397.146 487.435)" fill="white"/>
<circle cx="415.146" cy="487.485" r="3" transform="rotate(0.159173 415.146 487.485)" fill="white"/>
<circle cx="397.096" cy="505.435" r="3" transform="rotate(0.159173 397.096 505.435)" fill="white"/>
<circle cx="415.096" cy="505.485" r="3" transform="rotate(0.159173 415.096 505.485)" fill="white"/>
<g clip-path="url(#clip3)">
<path d="M1686.32 720.441L1707.01 699.859L1725.36 718.312L1743.39 700.357L1761.97 719.037L1781.84 699.274L1800.42 717.983" stroke="#FFF8DC" stroke-width="5.66226" stroke-miterlimit="10"/>
</g>
<g clip-path="url(#clip4)">
<path d="M1686.38 696.441L1707.08 675.859L1725.43 694.312L1743.46 676.357L1762.03 695.037L1781.91 675.274L1800.48 693.983" stroke="#E95584" stroke-width="5.66226" stroke-miterlimit="10"/>
</g>
<path d="M1920.33 422.666C1906.28 422.627 1892.37 419.821 1879.41 414.408C1866.44 408.994 1854.67 401.08 1844.76 391.116C1834.85 381.153 1827 369.336 1821.66 356.339C1816.32 343.342 1813.59 329.421 1813.63 315.369L1920.63 315.667L1920.33 422.666Z" fill="white"/>
</g>
<defs>
<linearGradient id="paint0_linear" x1="960" y1="0" x2="960" y2="1080" gradientUnits="userSpaceOnUse">
<stop stop-color="#3B68F7"/>
<stop offset="1" stop-color="#507AFA"/>
</linearGradient>
<clipPath id="clip0">
<rect width="1920" height="1080" fill="white" transform="translate(0.496582 0.665039)"/>
</clipPath>
<clipPath id="clip1">
<rect width="118.115" height="27.83" fill="white" transform="translate(338.907 213.272) rotate(0.159173)"/>
</clipPath>
<clipPath id="clip2">
<rect width="118.115" height="27.83" fill="white" transform="translate(338.974 189.272) rotate(0.159173)"/>
</clipPath>
<clipPath id="clip3">
<rect width="118.115" height="27.83" fill="white" transform="translate(1684.38 695.012) rotate(0.159173)"/>
</clipPath>
<clipPath id="clip4">
<rect width="118.115" height="27.83" fill="white" transform="translate(1684.44 671.012) rotate(0.159173)"/>
</clipPath>
</defs>
</svg>
